<?xml version="1.0" encoding="utf-8"?><svg viewBox="0 0 512 512" xmlns="http://www.w3.org/2000/svg" xmlns:xlink="http://www.w3.org/1999/xlink"><style>:root>svg{display:none}:root>svg:target{display:block}</style><svg viewBox="0 -32 512 512" id="add" xmlns="http://www.w3.org/2000/svg"><path d="M405 245H277v128h-42V245H107v-42h128V75h42v128h128v42z"/></svg><svg viewBox="0 0 512 512" id="advisor" xmlns="http://www.w3.org/2000/svg"><path d="M282.5 130.9 256 85 58.5 427h52.3zm171 296.1L290.4 144.6l-27.7 47.8L374.5 386H150.4l-23.8 41z"/></svg><svg viewBox="0 0 48 48" style="enable-background:new 0 0 48 48" xml:space="preserve" id="api" xmlns="http://www.w3.org/2000/svg"><path d="M7 40c-.8 0-1.5-.3-2.1-.9-.6-.6-.9-1.3-.9-2.1V11c0-.8.3-1.5.9-2.1C5.5 8.3 6.2 8 7 8h34c.8 0 1.5.3 2.1.9.6.6.9 1.3.9 2.1v26c0 .8-.3 1.5-.9 2.1-.6.6-1.3.9-2.1.9H7zm0-3h34V15.2H7V37z"/><path d="m17.1 23.7-5.5 5.5 5.5 5.5v-4.1h9.8v-2.7h-9.8v-4.2zm19.3-.7-5.5-5.5v4.1h-9.8v2.7h9.8v4.1l5.5-5.4z"/></svg><svg viewBox="0 -32 512 512" id="apps" xmlns="http://www.w3.org/2000/svg"><path fill="currentColor" d="M85 139h86V53H85v86zm128 256h86v-86h-86v86zm-128 0h86v-86H85v86zm0-128h86v-86H85v86zm128 0h86v-86h-86v86zM341 53v86h86V53h-86zm-128 86h86V53h-86v86zm128 128h86v-86h-86v86zm0 128h86v-86h-86v86z"/></svg><svg viewBox="0 0 24 24" id="assistant" xmlns="http://www.w3.org/2000/svg"><path fill="currentColor" d="M19 2H5a2 2 0 0 0-2 2v14a2 2 0 0 0 2 2h4l3 3 3-3h4a2 2 0 0 0 2-2V4a2 2 0 0 0-2-2Zm-5.12 10.88L12 17l-1.88-4.12L6 11l4.12-1.88L12 5l1.88 4.12L18 11Z"/></svg><svg viewBox="0 -32 512 512" id="attachment" xmlns="http://www.w3.org/2000/svg"><path fill="currentColor" d="M352 96v245q0 35-25 60.5T267 427t-60.5-25.5T181 341V75q0-23 15.5-38.5T235 21q22 0 37.5 15.5T288 75v224q0 8-6.5 14.5T267 320q-9 0-15.5-6.5T245 299V96h-32v203q0 22 15.5 37.5T267 352t38-15 15-38V75q0-35-25-60.5T235-11t-60.5 25.5T149 75v266q0 49 34.5 83.5T267 459t83-34.5 34-83.5V96h-32z"/></svg><svg viewBox="0 0 24 24" id="autolayout" xmlns="http://www.w3.org/2000/svg"><path d="M0 0h24v24H0V0Z" style="stroke-width:0;fill:none"/><path d="m19.674 10.242 1.971.631-1.971.551-.551 1.97-.63-1.97-1.971-.551 1.971-.631.63-1.97.551 1.97Zm-3.356-6.12 2.925.887-2.925.945-.886 2.926-.887-2.926-2.925-.945 2.925-.887.887-2.925.886 2.925ZM11.85 9.243a.128.128 0 0 1 .017.065v5.452c0 .036-.012.058-.006.064l-7.973.01s-.024-.022-.024-.075V9.307c0-.037.013-.061-.001-.065h7.988Zm.577-1.342H3.3c-.521 0-.945.464-.945 1.035v6.196c0 .57.424 1.033.945 1.033h9.128c.521 0 .946-.464.946-1.033V8.936c0-.57-.424-1.035-.946-1.035Zm6.218 11.231H2.355v1.397h16.29v.763l.027 1.51 2.973-2.972-2.973-2.972-.027 1.343v.93Z" style="stroke-width:0"/></svg><svg viewBox="0 0 24 24" id="back-to-top" xmlns="http://www.w3.org/2000/svg"><path fill="currentColor" d="M8 11h3v10h2V11h3l-4-4ZM4 3v2h16V3Z"/></svg><svg viewBox="0 -32 512 512" id="backward" xmlns="http://www.w3.org/2000/svg"><path fill="currentColor" d="M427 203H167L287 83l-31-30L85 224l171 171 30-30-119-120h260v-42z"/></svg><svg viewBox="0 0 32 32" id="blog" xmlns="http://www.w3.org/2000/svg"><path d="M26.67 29.33H5.33A1.33 1.33 0 0 1 4 28V4a1.33 1.33 0 0 1 1.33-1.33h21.34A1.33 1.33 0 0 1 28 4v24a1.33 1.33 0 0 1-1.33 1.33ZM9.33 8v5.33h5.34V8Zm0 8v2.67h13.34V16Zm0 5.33V24h13.34v-2.67Zm8-12V12h5.34V9.33Z"/></svg><svg viewBox="0 -32 512 512" id="bold" xmlns="http://www.w3.org/2000/svg"><path fill="currentColor" d="M333 198q35-23 35-59t-24.5-61T283 53H149v299h151q34 0 56.5-23.5T379 271q0-52-46-73zm-120-91h64q13 0 22.5 9.5T309 139t-9.5 22.5T277 171h-64v-64zm75 192h-75v-64h75q14 0 23 9.5t9 22.5-9 22.5-23 9.5z"/></svg><svg viewBox="0 0 24 24" id="bpmn" xmlns="http://www.w3.org/2000/svg"><path fill="none" d="M0 0h24v24H0V0z" class="alst0"/><path d="M20 2H4c-1.1 0-2 .9-2 2v16c0 1.1.9 2 2 2h16c1.1 0 2-.9 2-2V4c0-1.1-.9-2-2-2zM8 15.3c-1.7 0-3-1.3-3-3s1.3-3 3-3 3 1.3 3 3-1.3 3-3 3zm8 .4-.9-.9 1.8-1.9h-4.2v-1.3H17l-1.8-1.9.8-.8 3.4 3.4-3.4 3.4z"/></svg><svg viewBox="0 -32 512 512" id="bulleted-list" xmlns="http://www.w3.org/2000/svg"><path fill="currentColor" d="M85 192q-13 0-22.5 9T53 224t9.5 23 22.5 9 22.5-9 9.5-23-9.5-23-22.5-9zm0-128q-13 0-22.5 9T53 96t9.5 23 22.5 9 22.5-9 9.5-23-9.5-23T85 64zm0 256q-13 0-22.5 9.5T53 352t9.5 22.5T85 384t22.5-9.5T117 352t-9.5-22.5T85 320zm64 53h299v-42H149v42zm0-128h299v-42H149v42zm0-170v42h299V75H149z"/></svg><svg viewBox="0 -32 512 512" id="business" xmlns="http://www.w3.org/2000/svg"><path fill="currentColor" d="M256 117V32H43v384h426V117H256zM128 373H85v-42h43v42zm0-85H85v-43h43v43zm0-85H85v-43h43v43zm0-86H85V75h43v42zm85 256h-42v-42h42v42zm0-85h-42v-43h42v43zm0-85h-42v-43h42v43zm0-86h-42V75h42v42zm214 256H256v-42h43v-43h-43v-43h43v-42h-43v-43h171v213zm-43-170h-43v42h43v-42zm0 85h-43v43h43v-43z"/></svg><svg viewBox="0 0 512 512" id="business-project" xmlns="http://www.w3.org/2000/svg"><path d="M426.3 128.3h-85.2V85.7c0-23.6-19-42.6-42.6-42.6h-85.2c-23.6 0-42.6 19-42.6 42.6v42.6H85.4c-23.6 0-42.4 19-42.4 42.6l-.2 234.4c0 23.6 19 42.6 42.6 42.6h340.9c23.6 0 42.6-19 42.6-42.6V170.9c0-23.6-19-42.6-42.6-42.6zM213.2 85.7h85.2v42.6h-85.2V85.7zm20.3 277.8-75.4-75.4 30-30 45.2 45.1 90.3-90.3 30 30-120.1 120.6z"/></svg><svg viewBox="0 0 24 24" id="business-project-starred" xmlns="http://www.w3.org/2000/svg"><path d="M13.36 19.16A5.86 5.86 0 0 1 22 14V8a2 2 0 0 0-2-2h-4V4a2 2 0 0 0-2-2h-4a2 2 0 0 0-2 2v2H4a2 2 0 0 0-2 2v11a2 2 0 0 0 2 2h9.66a5.86 5.86 0 0 1-.3-1.84ZM10 4h4v2h-4Zm-2.6 9.5 1.4-1.4 2.1 2.1 4.2-4.2 1.4 1.4-5.6 5.6Z"/><path d="m19.09 21.84 2.8 1.65-.64-3.18 2.42-2.17-3.18-.25-1.27-3.06-1.28 3.06-3.18.25 2.42 2.17-.77 3.18Z"/></svg><svg viewBox="0 -32 512 512" id="calendar" xmlns="http://www.w3.org/2000/svg"><path fill="currentColor" d="M192 203h-43v42h43v-42zm85 0h-42v42h42v-42zm86 0h-43v42h43v-42zm42-150h-21V11h-43v42H171V11h-43v42h-21q-18 0-30.5 13T64 96v299q0 17 12.5 29.5T107 437h298q18 0 30.5-12.5T448 395V96q0-17-12.5-30T405 53zm0 342H107V160h298v235z"/></svg><svg viewBox="0 0 24 24" id="chat-bubble" xmlns="http://www.w3.org/2000/svg"><path fill="currentColor" d="M21 6h-2v9H6v2a1 1 0 0 0 1 1h11l4 4V7a1 1 0 0 0-1-1Zm-4 6V3a1 1 0 0 0-1-1H3a1 1 0 0 0-1 1v14l4-4h10a1 1 0 0 0 1-1Z"/></svg><svg viewBox="0 -32 512 512" id="check-full" xmlns="http://www.w3.org/2000/svg"><path fill="currentColor" d="M256 11q-88 0-150.5 62.5T43 224t62.5 150.5T256 437t150.5-62.5T469 224 406.5 73.5 256 11zm-43 320L107 224l30-30 76 77 162-162 30 30z"/></svg><svg viewBox="0 0 512 512" id="clone" xmlns="http://www.w3.org/2000/svg"><path d="M341 21H85c-11.3 0-21.2 4.3-29.5 13S43 52.7 43 64v299h42V64h256V21zm64 86H171c-12 0-22.2 4.2-30.5 12.5S128 137.7 128 149v299c0 11.3 4.2 21.3 12.5 30s18.5 13 30.5 13h234c12 0 22.2-4.3 30.5-13s12.5-18.7 12.5-30V149c0-11.3-4.2-21.2-12.5-29.5S417 107 405 107zm0 341H171V149h234v299z"/><path d="M309.5 277v-64h-43v64h-64v43h64v64h43v-64h64v-43z"/></svg><svg viewBox="0 -32 512 512" id="close" xmlns="http://www.w3.org/2000/svg"><path fill="currentColor" d="m405 105-30-30-119 119L137 75l-30 30 119 119-119 119 30 30 119-119 119 119 30-30-119-119z"/></svg><svg viewBox="0 0 24 24" id="cloud-done" xmlns="http://www.w3.org/2000/svg"><path fill="none" d="M0 0h24v24H0z"/><path d="M19.35 10.04A7.49 7.49 0 0 0 12 4C9.11 4 6.6 5.64 5.35 8.04A5.994 5.994 0 0 0 0 14c0 3.31 2.69 6 6 6h13c2.76 0 5-2.24 5-5 0-2.64-2.05-4.78-4.65-4.96zM10 17l-3.5-3.5 1.41-1.41L10 14.17 15.18 9l1.41 1.41L10 17z"/></svg><svg xml:space="preserve" viewBox="0 0 24 15.72" id="cloud-upload" xmlns="http://www.w3.org/2000/svg"><path d="M18.977 5.92A7.33 7.33 0 0 0 5.277 4a5.88 5.88 0 0 0 .63 11.71h12.73a4.9 4.9 0 1 0 .34-9.79zm-4.37 2.63-2-2.07v6.37h-1.61V6.48l-2 2-1.13-1.1 3.92-3.92 3.92 3.92-1.1 1.17z"/></svg><svg viewBox="0 0 48 48" id="code" xmlns="http://www.w3.org/2000/svg"><path d="M15.7 36.6 3 23.9l12.8-12.8 2.85 2.8-9.95 10 9.85 9.85Zm16.5.1-2.8-2.8 10-9.95-9.9-9.85 2.8-2.9L45 23.9Z"/></svg><svg viewBox="0 -32 512 512" id="colors" xmlns="http://www.w3.org/2000/svg"><path fill="currentColor" d="M256 32q-80 0-136 56T64 224t56 136 136 56q14 0 23-9t9-23-9-21q-8-10-8-22 0-13 9.5-22.5T303 309h38q44 0 75.5-31t31.5-75q0-71-56.5-121T256 32zM139 224q-13 0-22.5-9t-9.5-23 9.5-23 22.5-9 22.5 9 9.5 23-9.5 23-22.5 9zm64-85q-13 0-22.5-9.5T171 107t9.5-22.5T203 75t22.5 9.5T235 107t-9.5 22.5T203 139zm106 0q-13 0-22.5-9.5T277 107t9.5-22.5T309 75t22.5 9.5T341 107t-9.5 22.5T309 139zm64 85q-13 0-22.5-9t-9.5-23 9.5-23 22.5-9 22.5 9 9.5 23-9.5 23-22.5 9z"/></svg><svg viewBox="0 0 32 32" id="connect-direct" xmlns="http://www.w3.org/2000/svg"><path d="M2.475.013.025 2.424l25.723 26.138h-6.061V32h12.344V20.437h-3.438v6.116L2.475.013Z" style="stroke-width:0"/></svg><svg viewBox="0 0 32.149 32.275" id="connect-step" xmlns="http://www.w3.org/2000/svg"><path d="M0 0v3.438h12.031v23.119l1.712.006c3.123.012 8.54-.042 12.268-.015l-3.074 3.433 2.561 2.293 6.651-7.43-6.651-7.43-2.561 2.293 3.046 3.402c-3.213-.023-7.387.007-10.515.013V0H0Z" style="stroke-width:0"/></svg><svg viewBox="0 -32 512 512" id="copy" xmlns="http://www.w3.org/2000/svg"><path fill="currentColor" d="M341-11H85Q68-11 55.5 2T43 32v299h42V32h256v-43zm64 86H171q-18 0-30.5 12.5T128 117v299q0 17 12.5 30t30.5 13h234q18 0 30.5-13t12.5-30V117q0-17-12.5-29.5T405 75zm0 341H171V117h234v299z"/></svg><svg viewBox="0 0 24 24" id="credit-card" xmlns="http://www.w3.org/2000/svg"><path fill="none" d="M0 0h24v24H0z"/><path d="M20 4H4c-1.11 0-1.99.89-1.99 2L2 18c0 1.11.89 2 2 2h16c1.11 0 2-.89 2-2V6c0-1.11-.89-2-2-2zm0 14H4v-6h16v6zm0-10H4V6h16v2z"/></svg><svg viewBox="0 0 24 24" id="cut" xmlns="http://www.w3.org/2000/svg"><path d="M9.6 7.6c.3-.5.4-1 .4-1.6 0-2.2-1.8-4-4-4S2 3.8 2 6s1.8 4 4 4c.6 0 1.1-.1 1.6-.4L10 12l-2.4 2.4c-.5-.3-1-.4-1.6-.4-2.2 0-4 1.8-4 4s1.8 4 4 4 4-1.8 4-4c0-.6-.1-1.1-.4-1.6L12 14l7 7h3v-1L9.6 7.6zM6 8c-1.1 0-2-.9-2-2s.9-2 2-2 2 .9 2 2-.9 2-2 2zm0 12c-1.1 0-2-.9-2-2s.9-2 2-2 2 .9 2 2-.9 2-2 2zm6-7.5c-.3 0-.5-.2-.5-.5s.2-.5.5-.5.5.2.5.5-.2.5-.5.5zM19 3l-6 6 2 2 7-7V3h-3z"/></svg><svg viewBox="0 -32 512 512" id="dashboard" xmlns="http://www.w3.org/2000/svg"><path fill="currentColor" d="M64 245h171V32H64v213zm0 171h171V288H64v128zm213 0h171V203H277v213zm0-384v128h171V32H277z"/></svg><svg viewBox="0 0 24 24" id="data-manager" xmlns="http://www.w3.org/2000/svg"><path d="M8.2 15.58h7.56v4.44H8.2z"/><path d="M21.38 6.59A1.89 1.89 0 0 0 20 6h-8l-2-2H4a1.82 1.82 0 0 0-1.38.61A2 2 0 0 0 2 6v12a2 2 0 0 0 .59 1.4A1.82 1.82 0 0 0 4 20h1.44v-7h13.08v7H20a1.84 1.84 0 0 0 1.38-.61A1.94 1.94 0 0 0 22 18V8a1.93 1.93 0 0 0-.62-1.41Z"/></svg><svg viewBox="0 0 24 24" id="dataset" xmlns="http://www.w3.org/2000/svg"><path d="M20.94 20.94a1.8 1.8 0 0 0 .56-1.31V4.37a1.8 1.8 0 0 0-.56-1.31 1.8 1.8 0 0 0-1.31-.56H4.37a1.8 1.8 0 0 0-1.31.56 1.8 1.8 0 0 0-.56 1.31v15.26a1.8 1.8 0 0 0 .56 1.31 1.8 1.8 0 0 0 1.31.56h15.26a1.8 1.8 0 0 0 1.31-.56ZM4.37 8.21V4.37h15.26v3.84Zm0 5.71v-3.84h3.84v3.84Zm5.71 0v-3.84h3.84v3.84Zm5.71 0v-3.84h3.84v3.84ZM4.37 19.63v-3.84h3.84v3.84Zm5.71 0v-3.84h3.84v3.84Zm5.71 0v-3.84h3.84v3.84Z"/></svg><svg viewBox="0 -32 512 512" id="delete-all" xmlns="http://www.w3.org/2000/svg"><path fill="currentColor" d="M320 309h85v43h-85v-43zm0-170h149v42H320v-42zm0 85h128v43H320v-43zM64 352q0 17 12.5 30t30.5 13h128q17 0 29.5-13t12.5-30V139H64v213zM299 75h-64l-22-22h-85l-21 22H43v42h256V75z"/></svg><svg viewBox="0 -32 512 512" id="delete-forever" xmlns="http://www.w3.org/2000/svg"><path fill="currentColor" d="M128 373q0 18 12.5 30.5T171 416h170q18 0 30.5-12.5T384 373V117H128v256zm52-151 30-30 46 45 45-45 30 30-45 45 45 44-30 30-45-44-45 44-30-30 45-44zM331 53l-22-21H203l-22 21h-74v43h298V53h-74z"/></svg><svg viewBox="0 -32 512 512" id="description" xmlns="http://www.w3.org/2000/svg"><path fill="currentColor" d="M299 11H128q-17 0-30 12.5T85 53v342q0 17 13 29.5t30 12.5h256q17 0 30-12.5t13-29.5V139zm42 341H171v-43h170v43zm0-85H171v-43h170v43zm-64-107V43l118 117H277z"/></svg><svg viewBox="0 0 24 24" id="dmn" xmlns="http://www.w3.org/2000/svg"><path fill="none" d="M0 0h24v24H0V0z" class="bkst0"/><path d="M20 2H4c-1.1 0-2 .9-2 2v16c0 1.1.9 2 2 2h16c1.1 0 2-.9 2-2V4c0-1.1-.9-2-2-2zM5 6.8h14v2.5H5V6.8zm2.5 10.4H5v-2.5h2.5v2.5zm0-4H5v-2.5h2.5v2.5zm11.5 4H9v-2.5h10v2.5zm0-4H9v-2.5h10v2.5z"/></svg><svg viewBox="0 0 512 512" id="done" xmlns="http://www.w3.org/2000/svg"><path d="M192 410.66 67.39 286.05 102 250.29l90 90 226-227L453.66 149Z"/></svg><svg viewBox="0 0 512 512" id="down" xmlns="http://www.w3.org/2000/svg"><path d="M256 330.66 122.34 197 158 161.33l98 99 98-99L389.66 197Z"/></svg><svg viewBox="0 0 24 24" id="download" xmlns="http://www.w3.org/2000/svg"><path d="m12 16.75-5.94-5.94 1.67-1.72 3.08 3.09V2.5h2.38v9.68l3.09-3.09 1.66 1.72ZM2.5 21.5v-5.94h2.38v3.56h14.25v-3.56h2.37v5.94Z"/></svg><svg viewBox="0 0 24 24" id="drag" xmlns="http://www.w3.org/2000/svg"><path fill="none" d="M0 0h24v24H0V0z"/><path d="M11 18c0 1.1-.9 2-2 2s-2-.9-2-2 .9-2 2-2 2 .9 2 2zm-2-8c-1.1 0-2 .9-2 2s.9 2 2 2 2-.9 2-2-.9-2-2-2zm0-6c-1.1 0-2 .9-2 2s.9 2 2 2 2-.9 2-2-.9-2-2-2zm6 4c1.1 0 2-.9 2-2s-.9-2-2-2-2 .9-2 2 .9 2 2 2zm0 2c-1.1 0-2 .9-2 2s.9 2 2 2 2-.9 2-2-.9-2-2-2zm0 6c-1.1 0-2 .9-2 2s.9 2 2 2 2-.9 2-2-.9-2-2-2z"/></svg><svg viewBox="0 -32 512 512" id="edit" xmlns="http://www.w3.org/2000/svg"><path fill="currentColor" d="M64 336v80h80l236-236-80-80zm378-218q14-14 0-29l-51-51q-15-14-29 0l-40 40 80 80z"/></svg><svg viewBox="0 0 48 48" id="elevator" xmlns="http://www.w3.org/2000/svg"><path d="M11.3 15.6 24 2.9l12.8 12.8-2.8 2.85-9.95-9.95-9.85 9.85-2.9-2.85zm-.1 16.5 2.8-2.8 9.95 9.95 9.85-9.85 2.9 2.8L24 44.9 11.2 32.1z"/></svg><svg viewBox="0 -32 512 512" id="equalizer" xmlns="http://www.w3.org/2000/svg"><path fill="currentColor" d="M213 395h86V53h-86v342zm-128 0h86V224H85v171zm256-235v235h86V160h-86z"/></svg><svg viewBox="0 0 24 24" id="error" xmlns="http://www.w3.org/2000/svg"><path d="M12 2C6.48 2 2 6.48 2 12s4.48 10 10 10 10-4.48 10-10S17.52 2 12 2zm1 15h-2v-2h2v2zm0-4h-2V7h2v6z"/></svg><svg viewBox="0 0 32 32" id="evaluator" xmlns="http://www.w3.org/2000/svg"><path d="M4.45 25.9a1.12 1.12 0 0 1-.82-.33 1.18 1.18 0 0 1 0-1.64 1.09 1.09 0 0 1 .82-.33h23.1a1.12 1.12 0 0 1 .82.33 1.18 1.18 0 0 1 0 1.64 1.05 1.05 0 0 1-.82.33ZM26.21 6.1H5.79a.65.65 0 0 0-.65.65V20.4a.65.65 0 0 0 .65.65h20.42a.65.65 0 0 0 .65-.65V6.75a.65.65 0 0 0-.65-.65Zm-1 8.07h-4.15L16 18.26l-.2-.19-6-5.81-3.12 2.19v-3.2L10 8.89l6.11 5.91 4-3.24h5.1Z"/></svg><svg viewBox="0 0 24 24" id="experimental" xmlns="http://www.w3.org/2000/svg"><path fill="none" d="M0 0h24v24H0z"/><path d="M19.8 18.4 14 10.67V6.5l1.35-1.69c.26-.33.03-.81-.39-.81H9.04c-.42 0-.65.48-.39.81L10 6.5v4.17L4.2 18.4c-.49.66-.02 1.6.8 1.6h14c.82 0 1.29-.94.8-1.6z"/></svg><svg viewBox="0 -32 512 512" id="explore" xmlns="http://www.w3.org/2000/svg"><path fill="currentColor" d="M256 201q-10 0-16.5 6.5T233 224t6.5 16.5T256 247t16.5-6.5T279 224t-6.5-16.5T256 201zm0-190q-88 0-150.5 62.5T43 224t62.5 150.5T256 437t150.5-62.5T469 224 406.5 73.5 256 11zm47 260-175 81 81-175 175-81z"/></svg><svg viewBox="0 -32 512 512" id="export-table" xmlns="http://www.w3.org/2000/svg"><path fill="currentColor" d="M427 11H85q-17 0-29.5 12.5T43 53v342q0 17 12.5 29.5T85 437h87V141h296v254q0 17-12.5 29.5T426 437h1q17 0 29.5-12.5T469 395V53q0-17-12.5-29.5T427 11zM171 395H85v-86h86v86zm0-128H85v-86h86v86zm0-128H85V53h86v86zm128 0h-86V53h86v86zm128 0h-86V53h86v86zm-255 2v296h254q17 0 29.5-12.5T468 395V141H172zm148 258-19-19 77-77H210v-28h168l-77-77 19-19 110 110z"/></svg><svg viewBox="0 0 24 24" id="facebook" xmlns="http://www.w3.org/2000/svg"><path fill="none" d="M0 0h24v24H0V0z"/><path d="M22.1 12.1C22.1 6.5 17.6 2 12 2S1.9 6.5 1.9 12.1c0 5 3.7 9.2 8.5 9.9v-7H7.9v-2.9h2.6V9.8c0-2.5 1.5-3.9 3.8-3.9 1.1 0 2.3.2 2.3.2v2.5h-1.3c-1.2 0-1.6.8-1.6 1.6v1.9h2.8l-.6 2.9h-2.3v7c4.8-.8 8.5-4.9 8.5-9.9z"/></svg><svg viewBox="0 0 24 24" id="feedback" xmlns="http://www.w3.org/2000/svg"><path fill="currentColor" d="M20 2H4a2 2 0 0 0-2 2v18l4-4h14a2 2 0 0 0 2-2V4a2 2 0 0 0-2-2Zm-7 12h-2v-2h2Zm0-4h-2V6h2Z"/></svg><svg viewBox="0 -32 512 512" id="file" xmlns="http://www.w3.org/2000/svg"><path fill="currentColor" d="M128 11q-17 0-30 12.5T85 53v342q0 17 13 29.5t30 12.5h256q17 0 30-12.5t13-29.5V139L299 11H128zm149 149V43l118 117H277z"/></svg><svg viewBox="0 -32 512 512" id="filter" xmlns="http://www.w3.org/2000/svg"><path fill="currentColor" d="M213 352h86v-43h-86v43zM64 96v43h384V96H64zm64 149h256v-42H128v42z"/></svg><svg viewBox="0 0 48 48" id="first-page" xmlns="http://www.w3.org/2000/svg"><path d="M11.5 36.7V11.3h4v25.4Zm22.85-.15L22 24.15l12.4-12.4 2.8 2.85-9.55 9.55 9.55 9.55Z"/></svg><svg viewBox="0 0 24 24" id="flip-horizontal" xmlns="http://www.w3.org/2000/svg"><path d="M12.67 11.33h-1.34V10h1.34Zm0-2.66h-1.34V7.33h1.34Zm0 5.33h-1.34v-1.33h1.34Zm0 2.67h-1.34v-1.34h1.34Zm0 2.66h-1.34V18h1.34Zm0 2.67h-1.34v-1.33h1.34Z"/><path d="M11.92 3.5a7.45 7.45 0 0 1 5.41 2.83L15.67 8h4.5V3.5l-1.75 1.83A8.78 8.78 0 0 0 12 2C9.08 2 6.58 3.5 4.58 6.33l1.17.92C7.42 4.83 9.58 3.5 11.92 3.5ZM10 15.17l-8-6.5V22Zm-2.17 0-4.5 4V11.5Zm6.17.33 8 6.5V8.67Z"/></svg><svg viewBox="0 0 24 24" id="flip-vertical" xmlns="http://www.w3.org/2000/svg"><path d="M14 11.33v1.34h-1.33v-1.34Zm2.67 0v1.34h-1.34v-1.34Zm-5.34 0v1.34H10v-1.34Zm-2.66 0v1.34H7.33v-1.34Zm-2.67 0v1.34H4.67v-1.34Zm-2.67 0v1.34H2v-1.34Z"/><path d="M20.5 11.92a7.45 7.45 0 0 1-2.83 5.41L16 15.67v4.5h4.5l-1.83-1.75A8.78 8.78 0 0 0 22 12c0-2.83-1.5-5.42-4.33-7.33l-.92 1.16c2.42 1.59 3.75 3.75 3.75 6.09ZM8.83 10l6.5-8H2Zm0-2.17-4-4.5h7.67ZM8.5 14 2 22h13.33Z"/></svg><svg viewBox="0 -32 512 512" id="folder" xmlns="http://www.w3.org/2000/svg"><path fill="currentColor" d="M213 53H85q-17 0-29.5 13T43 96v256q0 17 12.5 30T85 395h342q17 0 29.5-13t12.5-30V139q0-18-12.5-30.5T427 96H256z"/></svg><svg viewBox="0 0 24 24" id="format-clear" xmlns="http://www.w3.org/2000/svg"><path fill="none" d="M0 0h24v24H0z"/><path d="M3.27 5 2 6.27l6.97 6.97L6.5 19h3l1.57-3.66L16.73 21 18 19.73 3.55 5.27 3.27 5zM6 5v.18L8.82 8h2.4l-.72 1.68 2.1 2.1L14.21 8H20V5H6z"/></svg><svg viewBox="0 -32 512 512" id="forward" xmlns="http://www.w3.org/2000/svg"><path fill="currentColor" d="m256 53-30 30 119 120H85v42h260L226 365l30 30 171-171z"/></svg><svg viewBox="0 0 48 48" id="full-screen-enter" xmlns="http://www.w3.org/2000/svg"><path d="m21.201 23.999 2.8 2.8-10.618 10.618 6.575 6.575H4.008v-15.95l6.575 6.575 10.618-10.618zM43.992 4.008v16l-6.626-6.624-10.567 10.617-2.8-2.8 10.617-10.567-6.624-6.626h16z"/></svg><svg viewBox="0 0 48 48" id="full-screen-exit" xmlns="http://www.w3.org/2000/svg"><path d="m6.808 43.992-2.8-2.8 10.618-10.618-6.575-6.575h15.95v15.95l-6.575-6.575L6.808 43.992zm17.191-19.991v-16l6.626 6.624L41.192 4.008l2.8 2.8-10.617 10.567 6.624 6.626h-16z"/></svg><svg viewBox="0 0 24 24" id="fullscreen-close" xmlns="http://www.w3.org/2000/svg"><path fill="none" d="M0 0h24v24H0z"/><path d="M22 3.41 16.71 8.7 20 12h-8V4l3.29 3.29L20.59 2 22 3.41zM3.41 22l5.29-5.29L12 20v-8H4l3.29 3.29L2 20.59 3.41 22z"/></svg><svg viewBox="0 0 24 24" id="fullscreen-open" xmlns="http://www.w3.org/2000/svg"><path fill="none" d="M0 0h24v24H0z"/><path d="m12 10.6 5.3-5.3L14 2h8v8l-3.3-3.3-5.3 5.3-1.4-1.4zM10.6 12l-5.3 5.3L2 14v8h8l-3.3-3.3 5.3-5.3-1.4-1.4z"/></svg><svg viewBox="0 0 24 24" id="google" xmlns="http://www.w3.org/2000/svg"><path fill="none" d="M0 0h24v24H0V0z"/><path d="M21.8 12.2c0-.7-.1-1.4-.2-2h-9.4V14h5.4c-.2 1.2-.9 2.3-2 3-.9.6-2.1 1-3.4 1-2.6 0-4.8-1.8-5.6-4.1-.4-1.2-.4-2.6 0-3.8.8-2.4 3-4.1 5.6-4.1 1.4 0 2.8.5 3.8 1.5l2.9-2.9C17.1 2.9 14.7 2 12.2 2 8.4 2 5 4.1 3.3 7.5c-1.4 2.8-1.4 6.2 0 9C5 19.9 8.4 22 12.2 22c2.7 0 5-.9 6.6-2.4 1.9-1.8 3-4.3 3-7.4z"/></svg><svg viewBox="0 -32 512 512" id="grid" xmlns="http://www.w3.org/2000/svg"><path fill="currentColor" d="M427 11H85q-17 0-29.5 12.5T43 53v342q0 17 12.5 29.5T85 437h342q17 0 29.5-12.5T469 395V53q0-17-12.5-29.5T427 11zM171 395H85v-86h86v86zm0-128H85v-86h86v86zm0-128H85V53h86v86zm128 256h-86v-86h86v86zm0-128h-86v-86h86v86zm0-128h-86V53h86v86zm128 256h-86v-86h86v86zm0-128h-86v-86h86v86zm0-128h-86V53h86v86z"/></svg><svg viewBox="0 0 24 24" id="group" xmlns="http://www.w3.org/2000/svg"><path fill="none" d="M0 0h24v24H0z"/><path d="M12 12.75c1.63 0 3.07.39 4.24.9 1.08.48 1.76 1.56 1.76 2.73V18H6v-1.61c0-1.18.68-2.26 1.76-2.73 1.17-.52 2.61-.91 4.24-.91zM4 13c1.1 0 2-.9 2-2s-.9-2-2-2-2 .9-2 2 .9 2 2 2zm1.13 1.1c-.37-.06-.74-.1-1.13-.1-.99 0-1.93.21-2.78.58A2.01 2.01 0 0 0 0 16.43V18h4.5v-1.61c0-.83.23-1.61.63-2.29zM20 13c1.1 0 2-.9 2-2s-.9-2-2-2-2 .9-2 2 .9 2 2 2zm4 3.43c0-.81-.48-1.53-1.22-1.85A6.95 6.95 0 0 0 20 14c-.39 0-.76.04-1.13.1.4.68.63 1.46.63 2.29V18H24v-1.57zM12 6c1.66 0 3 1.34 3 3s-1.34 3-3 3-3-1.34-3-3 1.34-3 3-3z"/></svg><svg viewBox="0 -32 512 512" id="heart-empty" xmlns="http://www.w3.org/2000/svg"><path fill="currentColor" d="M352 32q-59 0-96 45-37-45-96-45-50 0-83.5 34T43 149q0 29 11 56.5t41 62 53 56.5 77 72l31 27 31-27q54-50 77-72t53-56.5 41-62 11-56.5q0-49-33.5-83T352 32zm-94 332-2 2-2-2q-50-45-71-65.5T133.5 247 95 193.5 85 149q0-32 21.5-53T160 75q25 0 46.5 14t29.5 36h39q8-22 29.5-36T351 75q32 0 53.5 21t21.5 53q0 22-10 44.5T378 247t-49 51.5-71 65.5z"/></svg><svg viewBox="0 -32 512 512" id="heart-full" xmlns="http://www.w3.org/2000/svg"><path fill="currentColor" d="m256 423-31-27q-54-50-77-72t-53-56.5-41-62T43 149q0-49 33.5-83T160 32q59 0 96 45 37-45 96-45 50 0 83.5 34t33.5 83q0 29-11 56.5t-41 62-53 56.5-77 72z"/></svg><svg viewBox="0 0 24 24" id="heatmap" xmlns="http://www.w3.org/2000/svg"><path d="M2.501 20.505v-3.677c0-.55.446-.995.995-.995h3.677c.55 0 .995.446.995.995v3.677c0 .55-.446.995-.995.995H3.496a.995.995 0 0 1-.995-.995Zm8.994.995a.995.995 0 0 1-.995-.995v-3.677c0-.55.446-.995.995-.995H14.5v-4.339c0-.55.446-.995.995-.995h5.011c.55 0 .995.446.995.995v5.011c0 .55-.446.995-.995.995h-4.338v3.005c0 .55-.446.995-.995.995h-3.678Zm-4.994-4H4.168v2.333h2.333V17.5Zm13.333-5.334h-3.667v3.667h3.667v-3.667Zm-17.333-.333h1.667V13.5H2.501v-1.667Zm6.328.335a.995.995 0 0 1-.995-.995V9.501H3.495a.995.995 0 0 1-.995-.995V3.495c0-.55.446-.995.995-.995h5.011c.55 0 .995.446.995.995v4.338h1.672c.55 0 .995.446.995.995v2.344c0 .55-.446.995-.995.995H8.829Zm-.995-8.001H4.167v3.667h3.667V4.167Zm6.683 3.005V3.495c0-.55.446-.995.995-.995h4.994c.55 0 .995.446.995.995v3.677c0 .55-.446.995-.995.995h-4.994a.995.995 0 0 1-.995-.995Zm5.317 12.661h1.667V21.5h-1.667v-1.667Z" style="stroke-width:0"/></svg><svg viewBox="0 0 24 24" id="help" xmlns="http://www.w3.org/2000/svg"><path fill="none" d="M0 0h24v24H0z"/><path d="M12 2C6.48 2 2 6.48 2 12s4.48 10 10 10 10-4.48 10-10S17.52 2 12 2zm1 17h-2v-2h2v2zm2.07-7.75-.9.92C13.45 12.9 13 13.5 13 15h-2v-.5c0-1.1.45-2.1 1.17-2.83l1.24-1.26c.37-.36.59-.86.59-1.41 0-1.1-.9-2-2-2s-2 .9-2 2H8c0-2.21 1.79-4 4-4s4 1.79 4 4c0 .88-.36 1.68-.93 2.25z"/></svg><svg viewBox="0 0 24 24" id="hide" xmlns="http://www.w3.org/2000/svg"><path fill="currentColor" d="M12 7a5 5 0 0 1 5 5 4.85 4.85 0 0 1-.36 1.83l2.92 2.92A11.82 11.82 0 0 0 23 12a11.83 11.83 0 0 0-11-7.5 11.65 11.65 0 0 0-4 .7l2.16 2.16A4.85 4.85 0 0 1 12 7ZM2 4.27l2.28 2.28.46.45A11.84 11.84 0 0 0 1 12a11.82 11.82 0 0 0 15.38 6.66l.42.42L19.73 22 21 20.73 3.27 3ZM7.53 9.8l1.55 1.55A2.82 2.82 0 0 0 9 12a3 3 0 0 0 3 3 2.82 2.82 0 0 0 .65-.08l1.55 1.55A5 5 0 0 1 7.53 9.8Zm4.31-.8L15 12.17V12a3 3 0 0 0-3-3Z"/></svg><svg viewBox="0 -32 512 512" id="highlight-off" xmlns="http://www.w3.org/2000/svg"><path fill="currentColor" d="m311 139-55 55-55-55-30 30 55 55-55 55 30 30 55-55 55 55 30-30-55-55 55-55zM256 11q-88 0-150.5 62.5T43 224t62.5 150.5T256 437t150.5-62.5T469 224 406.5 73.5 256 11zm0 384q-70 0-120.5-50.5T85 224t50.5-120.5T256 53t120.5 50.5T427 224t-50.5 120.5T256 395z"/></svg><svg viewBox="0 -32 512 512" id="history" xmlns="http://www.w3.org/2000/svg"><path fill="currentColor" d="M277 32q-79 0-135.5 56.5T85 224H21l84 83 1 3 86-86h-64q0-62 44-105.5T277 75q62 0 106 44t44 105-44 105-106 44-105-43l-30 29q54 57 135 57 79 0 135.5-56T469 224 412.5 88 277 32zm-21 107v106l92 55 15-26-75-45v-90h-32z"/></svg><svg viewBox="0 -32 512 512" id="image" xmlns="http://www.w3.org/2000/svg"><path fill="currentColor" d="M448 373V75q0-18-12.5-30.5T405 32H107q-18 0-30.5 12.5T64 75v298q0 18 12.5 30.5T107 416h298q18 0 30.5-12.5T448 373zM181 256l54 64 74-96 96 128H107z"/></svg><svg viewBox="0 0 24 24" id="inactive" xmlns="http://www.w3.org/2000/svg"><path d="M17.8 16.3c-5.4 0-9.7-4.4-9.7-9.7 0-1.6.4-3.2 1.1-4.5-4.1 1.3-7.1 5.2-7.1 9.8C2.1 17.4 6.7 22 12.3 22c4.4 0 8.1-2.8 9.6-6.7-1.2.6-2.6 1-4.1 1z"/></svg><svg viewBox="0 0 24 24" id="indent-decrease" xmlns="http://www.w3.org/2000/svg"><path d="M11 17h10v-2H11v2zm-8-5 4 4V8l-4 4zm0 9h18v-2H3v2zM3 3v2h18V3H3zm8 6h10V7H11v2zm0 4h10v-2H11v2z"/><path fill="none" d="M0 0h24v24H0z"/></svg><svg viewBox="0 0 24 24" id="indent-increase" xmlns="http://www.w3.org/2000/svg"><path d="M3 21h18v-2H3v2zM3 8v8l4-4-4-4zm8 9h10v-2H11v2zM3 3v2h18V3H3zm8 6h10V7H11v2zm0 4h10v-2H11v2z"/><path fill="none" d="M0 0h24v24H0z"/></svg><svg viewBox="0 0 24 24" id="info" xmlns="http://www.w3.org/2000/svg"><path fill="none" d="M0 0h24v24H0z"/><path d="M12 2C6.48 2 2 6.48 2 12s4.48 10 10 10 10-4.48 10-10S17.52 2 12 2zm1 15h-2v-6h2v6zm0-8h-2V7h2v2z"/></svg><svg viewBox="0 0 24 24" id="input" xmlns="http://www.w3.org/2000/svg"><path fill="currentColor" d="M19 9h-2v6.59L5.41 4 4 5.41 15.59 17H9v2h10Z"/></svg><svg viewBox="0 0 24 24" id="instagram" xmlns="http://www.w3.org/2000/svg"><path fill="none" d="M0 0h24v24H0V0z"/><path d="M12 3.8c2.7 0 3 0 4.1.1 1 0 1.5.2 1.9.3.4.2.8.4 1.2.8.3.3.6.7.8 1.2 0 .2.1.8.2 1.7 0 1.1.1 1.4.1 4.1s0 3-.1 4.1c0 1-.2 1.5-.3 1.9-.3.9-1 1.6-1.9 1.9-.4.1-.9.3-1.9.3-1.1 0-1.4.1-4.1.1s-3 0-4.1-.1c-1 0-1.5-.2-1.9-.3-.4-.2-.8-.4-1.2-.8-.3-.3-.6-.7-.8-1.2 0-.3-.1-.9-.2-1.8 0-1.1-.1-1.4-.1-4.1s0-3 .1-4.1c0-1 .2-1.5.3-1.9.2-.4.4-.8.8-1.2.3-.3.7-.6 1.2-.8.3 0 .9-.1 1.8-.2H12m0-1.9c-2.7 0-3.1 0-4.1.1-1.1 0-1.9.2-2.5.5-.7.2-1.3.6-1.8 1.1-.5.5-.9 1.1-1.1 1.8-.3.7-.5 1.4-.5 2.5 0 1-.1 1.4-.1 4.1s0 3.1.1 4.1c0 1.1.2 1.8.5 2.4.3.7.6 1.3 1.2 1.8.5.5 1.1.9 1.8 1.2.5.3 1.3.5 2.4.5s1.4.1 4.1.1 3.1 0 4.1-.1c1.1 0 1.8-.2 2.4-.5 1.4-.5 2.4-1.6 2.9-2.9.2-.6.4-1.4.5-2.4 0-1.1.1-1.4.1-4.1S22 9 21.9 8c0-1.1-.2-1.8-.5-2.4-.3-.7-.6-1.3-1.2-1.8-.5-.5-1.1-.9-1.8-1.2-.4-.4-1.2-.6-2.3-.6-1 0-1.4-.1-4.1-.1z"/><path d="M12 6.8c-2.9 0-5.2 2.3-5.2 5.2s2.3 5.2 5.2 5.2 5.2-2.3 5.2-5.2c0-2.9-2.3-5.2-5.2-5.2zm0 8.6c-1.9 0-3.4-1.5-3.4-3.4s1.5-3.4 3.4-3.4 3.4 1.5 3.4 3.4-1.5 3.4-3.4 3.4z"/><circle cx="17.4" cy="6.6" r="1.2"/></svg><svg viewBox="0 -32 512 512" id="italic" xmlns="http://www.w3.org/2000/svg"><path fill="currentColor" d="M213 53v64h47l-72 171h-60v64h171v-64h-47l72-171h60V53H213z"/></svg><svg viewBox="0 0 24 24" id="keyboard" xmlns="http://www.w3.org/2000/svg"><path fill="currentColor" d="M20 5H4a2 2 0 0 0-2 2v10a2 2 0 0 0 2 2h16a2 2 0 0 0 2-2V7a2 2 0 0 0-2-2Zm-9 3h2v2h-2Zm0 3h2v2h-2ZM8 8h2v2H8Zm0 3h2v2H8Zm-1 2H5v-2h2Zm0-3H5V8h2Zm9 7H8v-2h8Zm0-4h-2v-2h2Zm0-3h-2V8h2Zm3 3h-2v-2h2Zm0-3h-2V8h2Z"/></svg><svg viewBox="0 0 48 48" id="last-page" xmlns="http://www.w3.org/2000/svg"><path d="m13.6 36.45-2.85-2.85 9.6-9.6-9.6-9.6 2.85-2.85L26.05 24Zm18.9.25V11.3h4v25.4Z"/></svg><svg viewBox="0 0 512 512" id="left" xmlns="http://www.w3.org/2000/svg"><path d="M299 378.66 165.34 245 299 111.39 335.72 147l-99.05 98 98 98Z"/></svg><svg viewBox="0 0 24 24" id="license" xmlns="http://www.w3.org/2000/svg"><path fill="none" d="M0 0h24v24H0z"/><path d="m23 12-2.44-2.79.34-3.69-3.61-.82-1.89-3.2L12 2.96 8.6 1.5 6.71 4.69 3.1 5.5l.34 3.7L1 12l2.44 2.79-.34 3.7 3.61.82L8.6 22.5l3.4-1.47 3.4 1.46 1.89-3.19 3.61-.82-.34-3.69L23 12zm-12.91 4.72-3.8-3.81 1.48-1.48 2.32 2.33 5.85-5.87 1.48 1.48-7.33 7.35z"/></svg><svg viewBox="0 -32 512 512" id="link" xmlns="http://www.w3.org/2000/svg"><path fill="currentColor" d="M83 224q0-27 19.5-46.5T149 158h86v-41h-86q-44 0-75 31.5T43 224t31 75.5 75 31.5h86v-41h-86q-27 0-46.5-19.5T83 224zm88 21h170v-42H171v42zm192-128h-86v41h86q27 0 46.5 19.5T429 224t-19.5 46.5T363 290h-86v41h86q44 0 75-31.5t31-75.5-31-75.5-75-31.5z"/></svg><svg viewBox="0 0 24 24" id="linkedin" xmlns="http://www.w3.org/2000/svg"><path fill="none" d="M0 0h24v24H0V0z"/><path d="M12.8 11s-.1 0 0 0zm7.8-9.1H3.4c-.8 0-1.4.6-1.4 1.4v17.3c0 .8.7 1.4 1.5 1.4h17.1c.8 0 1.5-.6 1.5-1.4V3.3c-.1-.8-.7-1.4-1.5-1.4zM8 18.8H5V9.7h3v9.1zM6.5 8.4c-1 0-1.7-.7-1.7-1.6 0-.9.7-1.6 1.7-1.6s1.7.7 1.7 1.6c0 .9-.6 1.6-1.7 1.6zM19 18.8h-3v-4.9c0-1.2-.4-2.1-1.5-2.1-.8 0-1.3.6-1.6 1.1-.1.2-.1.5-.1.7v5.1h-3V9.6h3V11c.4-.6 1.1-1.5 2.7-1.5 2 0 3.5 1.3 3.5 4.1v5.2z"/></svg><svg viewBox="0 -32 512 512" id="list-view" xmlns="http://www.w3.org/2000/svg"><path fill="currentColor" d="M85 288h342v-43H85v43zm0 85h342v-42H85v42zm0-170h342v-43H85v43zm0-128v42h342V75H85z"/></svg><svg viewBox="0 0 24 24" id="location" xmlns="http://www.w3.org/2000/svg"><path fill="currentColor" d="M12 2a7 7 0 0 0-7 7c0 5.25 7 13 7 13s7-7.75 7-13a7 7 0 0 0-7-7Zm0 9.5A2.5 2.5 0 1 1 14.5 9a2.5 2.5 0 0 1-2.5 2.5Z"/></svg><svg viewBox="0 16 512 512" id="lock" xmlns="http://www.w3.org/2000/svg"><path fill="none" d="M0 0h512v512H0z"/><path d="M387.234 239.746h-15.085v-54.191c0-64.09-53.395-116.231-119.026-116.231-65.633 0-119.028 52.141-119.028 116.231v54.191h-9.33c-12.545 0-22.714 10.169-22.714 22.714v157.502c0 12.545 10.169 22.714 22.714 22.714h262.469c12.545 0 22.714-10.169 22.714-22.714V262.46c0-12.544-10.169-22.714-22.714-22.714zM182.8 185.555c0-37.654 31.546-68.287 70.323-68.287 38.775 0 70.321 30.633 70.321 68.287v54.191H182.8v-54.191z"/></svg><svg viewBox="0 -32 512 512" id="log" xmlns="http://www.w3.org/2000/svg"><path fill="currentColor" d="M384 331H128v-43h256v43zm0-86H128v-42h256v42zm0-85H128v-43h256v43zM64 437l32-32 32 32 32-32 32 32 32-32 32 32 32-32 32 32 32-32 32 32 32-32 32 32V11l-32 32-32-32-32 32-32-32-32 32-32-32-32 32-32-32-32 32-32-32-32 32-32-32v426z"/></svg><svg viewBox="0 -32 512 512" id="logout" xmlns="http://www.w3.org/2000/svg"><path fill="currentColor" d="m215 301 30 30 107-107-107-107-30 30 56 56H64v42h206zM405 32H107q-18 0-30.5 12.5T64 75v85h43V75h298v298H107v-85H64v85q0 18 12.5 30.5T107 416h298q18 0 30.5-12.5T448 373V75q0-18-12.5-30.5T405 32z"/></svg><svg viewBox="0 -32 512 512" id="loop" xmlns="http://www.w3.org/2000/svg"><path fill="currentColor" d="M256 53v-64l-85 86 85 85V96q52 0 90 38t38 90q0 33-15 60l31 31q27-43 27-91 0-70-50.5-120.5T256 53zm0 299q-52 0-90-38t-38-90q0-33 15-60l-31-31q-27 41-27 91 0 70 50.5 120.5T256 395v64l85-86-85-85v64z"/></svg><svg viewBox="0 0 32 32" id="magnet" xmlns="http://www.w3.org/2000/svg"><path d="M28.56 14.968v2.064c0 2.237-.517 4.187-1.606 5.964-1.032 1.72-2.581 3.097-4.473 4.129-1.893.975-4.072 1.434-6.481 1.434s-4.588-.459-6.481-1.434c-1.893-1.032-3.441-2.409-4.473-4.129-1.09-1.778-1.606-3.728-1.606-5.964v-2.064c0-.287.058-.573.287-.746.229-.229.459-.344.746-.344h6.308c.287 0 .517.115.688.344.229.172.344.459.344.746v2.064c0 .573.115 1.09.402 1.491.229.402.517.746.861.918.344.229.688.402 1.147.517s.803.172 1.032.229h1.492c.229-.058.573-.115 1.032-.229s.803-.287 1.147-.517c.344-.172.631-.517.861-.918.287-.402.402-.918.402-1.491v-2.064c0-.287.115-.573.344-.746a.819.819 0 0 1 .688-.344h6.308c.287 0 .517.115.746.344.229.172.287.459.287.746h-.004ZM11.814 4.474v6.308a.816.816 0 0 1-.344.688.819.819 0 0 1-.688.344H4.474c-.287 0-.517-.115-.746-.344-.229-.172-.287-.402-.287-.688V4.474c0-.287.058-.517.287-.746s.459-.287.746-.287h6.308c.287 0 .517.058.688.287.229.229.344.459.344.746Zm16.745 0v6.308c0 .287-.058.517-.287.688-.229.229-.459.344-.746.344h-6.308a.816.816 0 0 1-.688-.344.819.819 0 0 1-.344-.688V4.474c0-.287.115-.517.344-.746.172-.229.402-.287.688-.287h6.308c.287 0 .517.058.746.287s.287.459.287.746Z" style="stroke-width:0"/></svg><svg viewBox="0 0 24 24" id="mail" xmlns="http://www.w3.org/2000/svg"><path fill="none" d="M0 0h24v24H0z"/><path d="M20 4H4c-1.1 0-1.99.9-1.99 2L2 18c0 1.1.9 2 2 2h16c1.1 0 2-.9 2-2V6c0-1.1-.9-2-2-2zm0 4-8 5-8-5V6l8 5 8-5v2z"/></svg><svg viewBox="0 0 24 24" id="menu" xmlns="http://www.w3.org/2000/svg"><path fill="currentColor" d="M3 18h18v-2H3Zm0-5h18v-2H3Zm0-7v2h18V6Z"/></svg><svg viewBox="0 0 24 24" id="metadata" xmlns="http://www.w3.org/2000/svg"><path fill="none" d="M0 0h24v24H0z"/><circle cx="12" cy="3.5" r=".75" fill="none"/><circle cx="12" cy="3.5" r=".75" fill="none"/><circle cx="12" cy="3.5" r=".75" fill="none"/><path d="M19 3h-4.18C14.4 1.84 13.3 1 12 1s-2.4.84-2.82 2H5c-.14 0-.27.01-.4.04a2.008 2.008 0 0 0-1.44 1.19c-.1.23-.16.49-.16.77v14c0 .27.06.54.16.78s.25.45.43.64c.27.27.62.47 1.01.55.13.02.26.03.4.03h14c1.1 0 2-.9 2-2V5c0-1.1-.9-2-2-2zm-8 11.17-1.41 1.42L6 12l3.59-3.59L11 9.83 8.83 12 11 14.17zm1-9.92c-.41 0-.75-.34-.75-.75s.34-.75.75-.75.75.34.75.75-.34.75-.75.75zm2.41 11.34L13 14.17 15.17 12 13 9.83l1.41-1.42L18 12l-3.59 3.59z"/></svg><svg xml:space="preserve" style="enable-background:new 0 0 24 24" viewBox="0 0 24 24" id="microsoft" xmlns="http://www.w3.org/2000/svg"><path d="M11.496 22.053H1.947v-9.549h9.549v9.549zm10.557 0h-9.549v-9.549h9.549v9.549zM11.496 11.496H1.947V1.947h9.549v9.549zm10.557 0h-9.549V1.947h9.549v9.549z"/></svg><svg viewBox="0 0 24 24" id="mobile" xmlns="http://www.w3.org/2000/svg"><path fill="none" d="M0 0h24v24H0z"/><path d="M17 1.01 7 1c-1.1 0-1.99.9-1.99 2v18c0 1.1.89 2 1.99 2h10c1.1 0 2-.9 2-2V3c0-1.1-.9-1.99-2-1.99zM17 19H7V5h10v14z"/></svg><svg viewBox="0 0 512 512" id="more" xmlns="http://www.w3.org/2000/svg"><path d="M299 128c0-11.3-4.3-21.3-13-30s-18.7-13-30-13-21.3 4.3-30 13-13 18.7-13 30 4.3 21.3 13 30 18.7 13 30 13 21.3-4.3 30-13 13-18.7 13-30zm0 256c0-11.3-4.3-21.3-13-30s-18.7-13-30-13-21.3 4.3-30 13-13 18.7-13 30 4.3 21.3 13 30 18.7 13 30 13 21.3-4.3 30-13 13-18.7 13-30zm0-128c0-11.3-4.3-21.3-13-30s-18.7-13-30-13-21.3 4.3-30 13-13 18.7-13 30 4.3 21.3 13 30 18.7 13 30 13 21.3-4.3 30-13 13-18.7 13-30z"/></svg><svg viewBox="0 0 24 24" id="move" xmlns="http://www.w3.org/2000/svg"><path d="M20 6h-8l-2-2H4a2 2 0 0 0-2 2v12a2 2 0 0 0 2 2h16a2 2 0 0 0 2-2V8a2 2 0 0 0-2-2Zm-4.9 9.8 2.1-2.1H12v-1.6h5.2L15 10l1.1-1.1 4 4-4 4.1Z"/></svg><svg xml:space="preserve" style="enable-background:new 0 0 24 24" viewBox="0 0 24 24" id="new" xmlns="http://www.w3.org/2000/svg"><path d="M18.4 3.5h2.1v10.1h-2.1V3.5zM6.3 7.8l1.5-1.5 8.5 8.5-1.5 1.5-8.5-8.5zM3.5 18.4h10.1v2.1H3.5v-2.1z"/></svg><svg viewBox="0 -32 512 512" id="new-file" xmlns="http://www.w3.org/2000/svg"><path fill="currentColor" d="M299 11H128q-17 0-30 12.5T85 53v342q0 17 13 29.5t30 12.5h256q17 0 30-12.5t13-29.5V139zm42 298h-64v64h-42v-64h-64v-42h64v-64h42v64h64v42zm-64-149V43l118 117H277z"/></svg><svg viewBox="0 -32 512 512" id="new-folder" xmlns="http://www.w3.org/2000/svg"><path fill="currentColor" d="M427 96H256l-43-43H85q-17 0-29.5 13T43 96v256q0 17 12.5 30T85 395h342q17 0 29.5-13t12.5-30V139q0-18-12.5-30.5T427 96zm-22 171h-64v64h-42v-64h-64v-43h64v-64h42v64h64v43z"/></svg><svg viewBox="0 0 24 24" id="news" xmlns="http://www.w3.org/2000/svg"><path fill="currentColor" d="M18 11v2h4v-2Zm-2 6.61L19.2 20l1.2-1.6-3.2-2.4Zm4.4-12L19.2 4 16 6.4 17.2 8ZM4 9a2 2 0 0 0-2 2v2a2 2 0 0 0 2 2h1v4h2v-4h1l5 3V6L8 9Zm11.5 3A4.48 4.48 0 0 0 14 8.65v6.69A4.44 4.44 0 0 0 15.5 12Z"/></svg><svg viewBox="0 -32 512 512" id="no-entry" xmlns="http://www.w3.org/2000/svg"><path fill="currentColor" d="M256 11q-88 0-150.5 62.5T43 224t62.5 150.5T256 437t150.5-62.5T469 224 406.5 73.5 256 11zm0 384q-70 0-120.5-50.5T85 224q0-58 37-105l239 239q-47 37-105 37zm134-66L151 90q47-37 105-37 70 0 120.5 50.5T427 224q0 58-37 105z"/></svg><svg viewBox="0 -32 512 512" id="nonmarkingreturn" xmlns="http://www.w3.org/2000/svg"/><svg viewBox="0 0 24 24" id="notification" xmlns="http://www.w3.org/2000/svg"><path d="M12 22a2 2 0 0 0 2-2h-4a2 2 0 0 0 2 2Zm6-6v-5c0-3.07-1.64-5.64-4.5-6.32V4a1.5 1.5 0 0 0-3 0v.68C7.63 5.36 6 7.92 6 11v5l-2 2v1h16v-1Z"/></svg><svg viewBox="0 -32 512 512" id="numbered-list" xmlns="http://www.w3.org/2000/svg"><path fill="currentColor" d="M43 331h42v10H64v22h21v10H43v22h64v-86H43v22zm21-192h21V53H43v22h21v64zm-21 64h38l-38 44v20h64v-22H68l39-44v-20H43v22zM149 75v42h299V75H149zm0 298h299v-42H149v42zm0-128h299v-42H149v42z"/></svg><svg viewBox="0 -32 512 512" id="open-in-new" xmlns="http://www.w3.org/2000/svg"><path fill="currentColor" d="M405 373H107V75h149V32H107q-18 0-30.5 12.5T64 75v298q0 18 12.5 30.5T107 416h298q18 0 30.5-12.5T448 373V224h-43v149zM299 32v43h76L165 285l30 30 210-210v76h43V32H299z"/></svg><svg viewBox="0 0 24 24" id="output" xmlns="http://www.w3.org/2000/svg"><path fill="currentColor" d="M9 5v2h6.59L4 18.59 5.41 20 17 8.41V15h2V5Z"/></svg><svg viewBox="0 0 24 24" id="panel-bottom" xmlns="http://www.w3.org/2000/svg"><path d="M3.67 22A1.67 1.67 0 0 1 2 20.33V3.67A1.67 1.67 0 0 1 3.67 2h16.66A1.67 1.67 0 0 1 22 3.67v16.66A1.67 1.67 0 0 1 20.33 22Zm0-7.42h16.66V3.67H3.67Z"/></svg><svg viewBox="0 0 24 24" id="panel-left" xmlns="http://www.w3.org/2000/svg"><path d="M3.67 22A1.67 1.67 0 0 1 2 20.33V3.67A1.67 1.67 0 0 1 3.67 2h16.66A1.67 1.67 0 0 1 22 3.67v16.66A1.67 1.67 0 0 1 20.33 22Zm5.75-1.67h10.91V3.67H9.42Z"/></svg><svg viewBox="0 0 24 24" id="panel-right" xmlns="http://www.w3.org/2000/svg"><path d="M3.67 22A1.67 1.67 0 0 1 2 20.33V3.67A1.67 1.67 0 0 1 3.67 2h16.66A1.67 1.67 0 0 1 22 3.67v16.66A1.67 1.67 0 0 1 20.33 22Zm10.91-1.67V3.67H3.67v16.66Z"/></svg><svg viewBox="0 0 24 24" id="password" xmlns="http://www.w3.org/2000/svg"><path fill="currentColor" d="M2.91 15.64h18.18v1.81H2.91ZM4 12l.78-1.34L5.5 12l1.18-.68-.77-1.39h1.54V8.56H5.91l.77-1.33-1.18-.68-.77 1.33L4 6.55l-1.18.68.78 1.33H2v1.37h1.55l-.78 1.34Zm6.1-.68 1.18.68.72-1.39.77 1.39 1.23-.73-.77-1.34h1.55V8.56h-1.6L14 7.23l-1.18-.68L12 7.88l-.77-1.33-1.18.68.77 1.33H9.27v1.37h1.55ZM22 8.56h-1.55l.78-1.33-1.18-.68-.78 1.33-.77-1.33-1.18.68.77 1.33h-1.54v1.37h1.54l-.77 1.34 1.18.73.77-1.34.78 1.34 1.18-.68-.78-1.34H22Z"/></svg><svg viewBox="0 0 24 24" id="paste" xmlns="http://www.w3.org/2000/svg"><path fill="none" d="M0 0h24v24H0z"/><path d="M19 2h-4.18C14.4.84 13.3 0 12 0c-1.3 0-2.4.84-2.82 2H5c-1.1 0-2 .9-2 2v16c0 1.1.9 2 2 2h14c1.1 0 2-.9 2-2V4c0-1.1-.9-2-2-2zm-7 0c.55 0 1 .45 1 1s-.45 1-1 1-1-.45-1-1 .45-1 1-1zm7 18H5V4h2v3h10V4h2v16z"/></svg><svg viewBox="0 -32 512 512" id="pause" xmlns="http://www.w3.org/2000/svg"><path fill="currentColor" d="M128 373h85V75h-85v298zM299 75v298h85V75h-85z"/></svg><svg viewBox="0 -32 512 512" id="people" xmlns="http://www.w3.org/2000/svg"><path fill="currentColor" d="M341 203q27 0 45.5-19t18.5-45q0-27-18.5-45.5T341 75q-26 0-45 18.5T277 139q0 26 19 45t45 19zm-170 0q26 0 45-19t19-45q0-27-19-45.5T171 75q-27 0-45.5 18.5T107 139q0 26 18.5 45t45.5 19zm0 42q-28 0-61 8t-61 26-28 41v53h299v-53q0-23-27.5-41T232 253t-61-8zm170 0q-12 0-20 1 42 32 42 74v53h128v-53q0-23-28-41t-61-26-61-8z"/></svg><svg viewBox="0 -32 512 512" id="play" xmlns="http://www.w3.org/2000/svg"><path fill="currentColor" d="M171 75v298l234-149z"/></svg><svg xml:space="preserve" style="enable-background:new 0 0 32 32" viewBox="0 0 32 32" id="player" xmlns="http://www.w3.org/2000/svg"><path d="M20 24.6h-9L6 16l5-8.6h8.9L21.8 4H9.1l-7 12 7 12h12.8z"/><path d="M22.9 4 21 7.4l5 8.6-5 8.6 2 3.3L29.9 16z"/></svg><svg viewBox="0 0 24 24" id="preview" xmlns="http://www.w3.org/2000/svg"><path fill="currentColor" d="M19 3H5a2 2 0 0 0-2 2v14a2 2 0 0 0 2 2h14a2 2 0 0 0 2-2V5a2 2 0 0 0-2-2Zm0 16H5V7h14Zm-5.5-6a1.5 1.5 0 1 1-1.5-1.5 1.5 1.5 0 0 1 1.5 1.5ZM12 9a6.46 6.46 0 0 0-6 4 6.5 6.5 0 0 0 12 0 6.46 6.46 0 0 0-6-4Zm0 6.5a2.5 2.5 0 1 1 2.5-2.5 2.5 2.5 0 0 1-2.5 2.5Z"/></svg><svg viewBox="0 0 512 512" id="process-definition" xmlns="http://www.w3.org/2000/svg"><path d="M468.8 209V64.6H324.5V113h-142c-9.9-27.9-36.2-48-67.5-48-39.7 0-71.9 32.2-71.9 71.9s32.2 71.9 71.9 71.9c31.3 0 57.6-20.1 67.5-48h47.7v238.5h94.2v48.2h144.4V303H324.5v48.4H278V160.7h46.5V209h144.3z"/></svg><svg xml:space="preserve" style="enable-background:new 0 0 24 24" viewBox="0 0 24 24" id="process-instance" xmlns="http://www.w3.org/2000/svg"><path d="M12.8 16.9h2.8V7.1h-2.8v9.8zm4.9-9.8v9.7h2.8V7.1h-2.8zm-14.2 0v9.7l7.7-4.9-7.7-4.8z"/></svg><svg viewBox="0 0 24 24" id="process-manager" xmlns="http://www.w3.org/2000/svg"><path d="M18.84 12.8a8.36 8.36 0 0 0 0-1.58l2-1.57a.46.46 0 0 0 .11-.59L19 5.77a.46.46 0 0 0-.57-.2l-2.36.92a6.06 6.06 0 0 0-1.38-.78l-.36-2.5a.47.47 0 0 0-.46-.41h-3.78a.48.48 0 0 0-.46.39l-.36 2.5a8.07 8.07 0 0 0-1.37.78l-2.35-.92a.45.45 0 0 0-.57.2l-1.9 3.3a.45.45 0 0 0 .11.58l2 1.59a8.36 8.36 0 0 0 0 1.58l-2 1.57a.45.45 0 0 0-.11.58L5 18.25a.46.46 0 0 0 .57.2l2.34-.92a6.22 6.22 0 0 0 1.38.78l.37 2.5a.46.46 0 0 0 .46.39h3.81a.48.48 0 0 0 .46-.39l.37-2.5a8.38 8.38 0 0 0 1.36-.78l2.35.92a.45.45 0 0 0 .57-.2L20.9 15a.45.45 0 0 0-.11-.58Zm-8.28 2.88V8.32L16.08 12Z"/></svg><svg viewBox="0 -32 512 512" id="profile" xmlns="http://www.w3.org/2000/svg"><path fill="currentColor" d="M256 11q-88 0-150.5 62.5T43 224t62.5 150.5T256 437t150.5-62.5T469 224 406.5 73.5 256 11zm0 64q26 0 45 18.5t19 45.5q0 26-19 45t-45 19-45-19-19-45q0-27 19-45.5T256 75zm0 303q-81 0-128-69 1-29 45-47.5t83-18.5 83 18.5 45 47.5q-47 69-128 69z"/></svg><svg viewBox="0 0 32 32" id="project" xmlns="http://www.w3.org/2000/svg"><path d="m25.27 22.81-3.55-3.54V9.73h-9.54L8.64 6.19h13.08V2.1h3.55v4.09h4.63v3.54h-4.63ZM2.1 5.64v23.17a1 1 0 0 0 1.09 1.09h23.17Zm3.54 20.72V14.91l11.45 11.45Z"/></svg><svg viewBox="0 -32 512 512" id="puzzle" xmlns="http://www.w3.org/2000/svg"><path fill="currentColor" d="M437 203h-32v-86q0-17-12.5-29.5T363 75h-86V43q0-23-15.5-38.5T224-11 186.5 4.5 171 43v32H85q-17 0-29.5 12.5T43 117v81h32q24 0 40.5 17t16.5 41-16.5 41T75 314H43v81q0 17 12.5 29.5T85 437h81v-32q0-24 17-40.5t41-16.5 41 16.5 17 40.5v32h81q17 0 29.5-12.5T405 395v-86h32q23 0 38.5-15.5T491 256t-15.5-37.5T437 203z"/></svg><svg viewBox="0 0 24 24" id="question" xmlns="http://www.w3.org/2000/svg"><path d="M10.5 21h3v-3h-3v3zM12 3C8.7 3 6 5.7 6 9h3c0-1.7 1.3-3 3-3s3 1.3 3 3c0 3-4.5 2.6-4.5 7.5h3c0-3.4 4.5-3.7 4.5-7.5 0-3.3-2.7-6-6-6z"/></svg><svg viewBox="0 0 24 24" id="queue" xmlns="http://www.w3.org/2000/svg"><path fill="none" d="M0 0h24v24H0V0z"/><path d="M16 6v12l5.5-6L16 6zM8 6v12h2V6H8zm4 0v12h2V6h-2zM4 6v12h2V6H4z"/></svg><svg viewBox="0 -32 512 512" id="quote" xmlns="http://www.w3.org/2000/svg"><path fill="currentColor" d="M128 331h64l43-86V117H107v128h64zm171 0h64l42-86V117H277v128h64z"/></svg><svg viewBox="0 -32 512 512" id="reader-mode" xmlns="http://www.w3.org/2000/svg"><path fill="currentColor" d="M277 224h150v32H277v-32zm0-53h150v32H277v-32zm0 106h150v32H277v-32zM448 53H64q-17 0-30 13T21 96v277q0 18 13 30.5T64 416h384q17 0 30-12.5t13-30.5V96q0-17-13-30t-30-13zm0 320H256V96h192v277z"/></svg><svg viewBox="0 -32 512 512" id="redo" xmlns="http://www.w3.org/2000/svg"><path fill="currentColor" d="M393 194q-65-55-148-55-73 0-131.5 43T33 292l50 17q17-52 61.5-84.5T245 192q63 0 109 41l-77 76h192V117z"/></svg><svg xml:space="preserve" style="enable-background:new 0 0 24 24" viewBox="0 0 24 24" id="reference" xmlns="http://www.w3.org/2000/svg"><path d="M14.3 3v4.7l-1.2.1c-4.7.4-8.5 2.6-11.2 6.5C1 15.6.4 17-.1 18.5c0 .1-.1.2-.1.3 1.2-1.2 2.6-2.2 4.1-3 2.7-1.5 5.7-2.3 9-2.4h1.3v4.9l4.2-3.3c1.8-1.4 3.6-2.9 5.4-4.3l-5.3-4.2c-1.4-1.2-2.8-2.4-4.2-3.5z"/></svg><svg viewBox="0 -32 512 512" id="refresh" xmlns="http://www.w3.org/2000/svg"><path fill="currentColor" d="M377 103q-52-50-121-50-70 0-120.5 50.5T85 224q0 71 50 121t121 50q59 0 105-36t60-92h-44q-14 38-47 61.5T256 352q-52 0-90-38t-38-90 38-90 90-38 90 38l-69 69h150V53z"/></svg><svg viewBox="0 -32 512 512" id="release" xmlns="http://www.w3.org/2000/svg"><path fill="currentColor" d="M256 364 98 241l-34 27 192 149 192-149-35-27zm0-55 157-122 35-27L256 11 64 160l35 27z"/></svg><svg viewBox="0 -32 512 512" id="remove" xmlns="http://www.w3.org/2000/svg"><path fill="currentColor" d="M405 245H107v-42h298v42z"/></svg><svg xml:space="preserve" style="enable-background:new 0 0 24 24" viewBox="0 0 24 24" id="restore-from-trash" xmlns="http://www.w3.org/2000/svg"><path d="M5.3 19.8c0 .6.2 1.2.7 1.6s1 .7 1.6.7h8.9c.6 0 1.2-.2 1.6-.7s.7-1 .7-1.6V6.4H5.3v13.4zM12 9.7l4.1 4-1.2 1.1-2.1-2.1v5.2h-1.6v-5.2L9 14.8l-1-1.1 4-4zm3.9-6.6L14.8 2H9.2L8.1 3.1H4.2v2.2h15.6V3.1z"/></svg><svg viewBox="0 0 512 512" id="right" xmlns="http://www.w3.org/2000/svg"><path d="M213 384.66 177.33 349l99-98-99-98L213 117.34 346.66 251Z"/></svg><svg viewBox="0 0 24 24" id="rotate-clockwise" xmlns="http://www.w3.org/2000/svg"><path fill="none" d="M24 24H0V0h24v24z"/><path d="m11.7 12.9 5 5 5-5-5-5-5 5zm-7.1 6.5C6.4 21.1 8.7 22 11 22c1.5 0 3-.4 4.3-1.1l-1.5-1.5c-.9.4-1.8.6-2.8.6-1.8 0-3.6-.7-5-2-2.7-2.8-2.7-7.2 0-10 1.4-1.3 3.2-2 5-2v3.2L15.2 5 11 .8V4c-2.3 0-4.6.9-6.4 2.6-3.5 3.5-3.5 9.2 0 12.8z"/></svg><svg viewBox="0 0 24 24" id="rotate-counterclockwise" xmlns="http://www.w3.org/2000/svg"><path fill="none" d="M24 24H0V0h24v24z"/><path d="m7 7.9-5 5 5 5 5-5-5-5zm12.1-1.3C17.3 4.9 15 4 12.7 4V.8L8.5 5l4.2 4.2V6c1.8 0 3.6.7 5 2 2.7 2.8 2.7 7.2 0 10-1.4 1.3-3.2 2-5 2-1 0-1.9-.2-2.8-.6l-1.5 1.5c1.3.7 2.8 1.1 4.3 1.1 2.3 0 4.6-.9 6.4-2.6 3.5-3.6 3.5-9.3 0-12.8z"/></svg><svg viewBox="0 0 24 24" id="rsm" xmlns="http://www.w3.org/2000/svg"><path d="M14.3 5.8c.1-.1.2-.3.7-.3.2 0 .4 0 .6.1l.6.2L19 3.1l-2-.3c-.3 0-.6-.1-.9-.1-1.5 0-2.7.6-3.6 1.6-.8.9-1.3 2.1-1.5 3.6l-2.7 2.7h2.4l-.7 6c-.2 1.9-.9 1.9-1.1 1.9-.2 0-.4 0-.7-.1l-.6-.2-2.5 2.3 1.7.5c.4.1.8.2 1.1.2 1.2 0 2.3-.4 3.3-1.3.6-.6 1.1-1.3 1.4-2 .3-.7.5-1.7.6-2.9l.4-4.2H15l2.8-2.7h-3.9c.1-1.6.3-2.1.4-2.3z"/></svg><svg viewBox="0 -32 512 512" id="samples" xmlns="http://www.w3.org/2000/svg"><path fill="currentColor" d="m54 387 29 12V207L31 332q-7 16 0 32.5T54 387zm416-79L364 53q-11-24-39-26-8 0-17 3L151 95q-24 9-26 38 0 9 3 17l107 255q9 25 39 27 8 0 16-3l157-65q16-7 23-23.5t0-32.5zM169 155q-9 0-15.5-6.5T147 133q0-8 6.5-14.5T169 112q8 0 14.5 6.5T190 133q0 9-6.5 15.5T169 155zm-43 234q0 18 12.5 30.5T169 432h30l-73-178v135z"/></svg><svg viewBox="0 0 512 512" id="search" xmlns="http://www.w3.org/2000/svg"><path d="m405 442.66-110-110v-16.18l-2.45-2.86C267.21 334.45 237.11 345 203 345c-39.59 0-73.68-14-101.33-41.67S60 241.92 60 203c0-39.58 13.85-73.66 41.15-101.31S162.4 60 202 60c38.92 0 72.68 14 100.33 41.67S344 163.41 344 203c0 35.34-10.53 65.46-31.31 89.61l2.79 2.39h17.18l1.17 1.17L442.66 405ZM203 111c-26.11 0-48.2 8.86-65.67 26.33S111 176.89 111 203c0 25.44 9 47.37 26.83 65.17S177.56 295 203 295s47.37-9 65.17-26.83S295 228.44 295 203s-9-47.37-26.83-65.17S228.44 111 203 111Z"/></svg><svg viewBox="0 -32 512 512" id="security-verified" xmlns="http://www.w3.org/2000/svg"><path fill="currentColor" d="M256-11 64 75v128q0 89 55 162.5T256 459q82-20 137-93.5T448 203V75zm-43 342-85-86 30-30 55 56 141-141 30 30z"/></svg><svg viewBox="0 0 32 32" id="selector" xmlns="http://www.w3.org/2000/svg"><path d="m10.308 4.47 15.5 14.465c.857.713.189 2.243-.91 2.133l-8.886.57-5.757 5.885c-.778.84-2.277.037-2.074-1.069V5.395c-.042-1.077 1.367-1.692 2.128-.925Z" style="stroke-width:0"/></svg><svg viewBox="0 -32 512 512" id="send" xmlns="http://www.w3.org/2000/svg"><path fill="currentColor" d="m43 416 448-192L43 32v149l320 43-320 43v149z"/></svg><svg viewBox="0 0 24 24" id="server" xmlns="http://www.w3.org/2000/svg"><path fill="none" d="M0 0h24v24H0z"/><path d="M20 13H4c-.55 0-1 .45-1 1v6c0 .55.45 1 1 1h16c.55 0 1-.45 1-1v-6c0-.55-.45-1-1-1zM7 19c-1.1 0-2-.9-2-2s.9-2 2-2 2 .9 2 2-.9 2-2 2zM20 3H4c-.55 0-1 .45-1 1v6c0 .55.45 1 1 1h16c.55 0 1-.45 1-1V4c0-.55-.45-1-1-1zM7 9c-1.1 0-2-.9-2-2s.9-2 2-2 2 .9 2 2-.9 2-2 2z"/></svg><svg viewBox="0 -32 512 512" id="session" xmlns="http://www.w3.org/2000/svg"><path fill="currentColor" d="M427 11H85q-17 0-29.5 12.5T43 53v342q0 17 12.5 29.5T85 437h342q17 0 29.5-12.5T469 395V53q0-17-12.5-29.5T427 11zM171 395H85v-86h86v86zm0-128H85v-86h86v86zm0-128H85V53h86v86zm128 256h-86v-86h86v86zm0-128h-86v-86h86v86zm0-128h-86V53h86v86zm128 256h-86v-86h86v86zm0-128h-86v-86h86v86zm0-128h-86V53h86v86z"/></svg><svg viewBox="0 -32 512 512" id="settings" xmlns="http://www.w3.org/2000/svg"><path fill="currentColor" d="M415 245q1-6 1-21 0-4-.5-11t-.5-10l45-36q7-5 2-13l-43-74q-4-8-13-4l-53 21q-21-15-36-21l-8-57q-2-8-10-8h-86q-8 0-10 8l-9 57q-11 4-36 21l-53-21q-9-3-13 4l-43 74q-5 6 2 13l46 36q0 3-.5 10t-.5 11 .5 11 .5 10l-45 36q-7 5-2 13l43 74q4 8 13 4l53-21q21 15 36 21l9 57q2 8 10 8h86q8 0 10-8l9-57q11-4 36-21l54 21q8 3 12-4l43-74q4-7-2-13zm-159 54q-32 0-53.5-21.5T181 224t21.5-53.5T256 149t53.5 21.5T331 224t-21.5 53.5T256 299z"/></svg><svg viewBox="0 -32 512 512" id="share" xmlns="http://www.w3.org/2000/svg"><path fill="currentColor" d="M320 224q35 0 60-25t25-60-25-60.5T320 53t-60 25.5-25 60.5 25 60 60 25zm-192-43v-64H85v64H21v43h64v64h43v-64h64v-43h-64zm192 86q-54 0-112.5 23.5T149 352v43h342v-43q0-38-58.5-61.5T320 267z"/></svg><svg viewBox="0 0 24 24" id="share-android" xmlns="http://www.w3.org/2000/svg"><path d="M18 22.19A3.18 3.18 0 0 1 14.81 19a2.31 2.31 0 0 1 0-.37 3.29 3.29 0 0 1 .07-.36l-6.72-3.93a3.56 3.56 0 0 1-1 .62 3.16 3.16 0 0 1-3.42-.7 3.21 3.21 0 0 1 0-4.52A3.16 3.16 0 0 1 7.16 9a3.56 3.56 0 0 1 1 .62l6.75-3.93a3.29 3.29 0 0 1-.07-.36 2.31 2.31 0 0 1 0-.37 3.09 3.09 0 0 1 .93-2.26 3.21 3.21 0 0 1 4.52 0 3.09 3.09 0 0 1 .9 2.3A3.18 3.18 0 0 1 18 8.19 3.27 3.27 0 0 1 16.84 8a3.35 3.35 0 0 1-1-.62l-6.75 3.89a3.29 3.29 0 0 1 .07.36 2.3 2.3 0 0 1 0 .74 3.29 3.29 0 0 1-.07.36l6.75 3.92a3.35 3.35 0 0 1 1-.62 3.27 3.27 0 0 1 1.16-.22 3.2 3.2 0 0 1 2.26 5.45 3.09 3.09 0 0 1-2.26.93Z"/></svg><svg viewBox="0 0 24 24" id="share-ios" xmlns="http://www.w3.org/2000/svg"><path d="M6.07 23.24A2.27 2.27 0 0 1 3.8 21V10.37A2.25 2.25 0 0 1 6.07 8.1h2.79v2.27H6.07V21h11.86V10.37h-2.79V8.1h2.79a2.25 2.25 0 0 1 2.27 2.27V21a2.27 2.27 0 0 1-2.27 2.28Zm4.79-7V5.11l-1.6 1.6L7.67 5.1 12 .76l4.33 4.34-1.59 1.61-1.6-1.6v11.1Z"/></svg><svg viewBox="0 -32 512 512" id="shared" xmlns="http://www.w3.org/2000/svg"><path fill="currentColor" d="M427 96H256l-43-43H85q-17 0-29.5 13T43 96v256q0 17 12.5 30T85 395h342q17 0 29.5-13t12.5-30V139q0-18-12.5-30.5T427 96zm-107 64q17 0 30 12.5t13 30.5q0 17-13 29.5T320 245t-30-12.5-13-29.5q0-18 13-30.5t30-12.5zm85 171H235v-22q0-19 29-30.5t56-11.5 56 11.5 29 30.5v22z"/></svg><svg viewBox="0 -32 512 512" id="show" xmlns="http://www.w3.org/2000/svg"><path fill="currentColor" d="M256 64q-79 0-142.5 44T21 224q29 72 92.5 116T256 384t142.5-44T491 224q-29-72-92.5-116T256 64zm0 267q-44 0-75.5-31.5T149 224t31.5-75.5T256 117t75.5 31.5T363 224t-31.5 75.5T256 331zm0-171q-26 0-45 19t-19 45 19 45 45 19 45-19 19-45-19-45-45-19z"/></svg><svg viewBox="0 0 24 24" id="simulation" xmlns="http://www.w3.org/2000/svg"><path d="M12 10.32A1.72 1.72 0 1 0 13.72 12 1.72 1.72 0 0 0 12 10.32Z"/><path d="M12 6.52A5.52 5.52 0 1 0 17.52 12 5.53 5.53 0 0 0 12 6.52Zm0 9.38a3.86 3.86 0 1 1 3.86-3.9A3.86 3.86 0 0 1 12 15.9Z"/><path d="M3.81 8.19h.25A.77.77 0 0 0 4.25 8l1-1.2.62-.66A8.53 8.53 0 0 1 12 3.51a8.44 8.44 0 0 1 8.44 8.08v.24h1.81v-.26a10.25 10.25 0 0 0-10.64-9.84A10.17 10.17 0 0 0 5 4.54l-.24.22v-2H2.91v4.5a.9.9 0 0 0 .9.93ZM20.21 15.79h-.27a1.81 1.81 0 0 0-.19.15l-1 1.2-.64.7A8.52 8.52 0 0 1 12 20.49a8.44 8.44 0 0 1-8.44-8.08v-.24H1.74v.26A10.26 10.26 0 0 0 12 22.28h.41a10.22 10.22 0 0 0 6.66-2.81l.24-.23v2.06h1.8v-4.58a.91.91 0 0 0-.9-.93Zm0 .25Z"/></svg><svg viewBox="0 0 24 24" id="sort-ascending" xmlns="http://www.w3.org/2000/svg"><path d="M13.05 20.55h-2.2V7.5L7.1 11.25 5.55 9.7 12 3.25l6.35 6.45-1.55 1.55-3.75-3.75Z"/></svg><svg viewBox="0 0 24 24" id="sort-descending" xmlns="http://www.w3.org/2000/svg"><path d="M11.9 20.66 5.55 14.2l1.55-1.55 3.75 3.75v-13h2.2v13l3.75-3.75 1.55 1.55Z"/></svg><svg viewBox="0 0 24 24" id="sort-none" xmlns="http://www.w3.org/2000/svg"><path d="M9.2 3.6v12.6l-4-4L4 13.4l6 6.1.9.9V3.6zm5.6 16.8V7.8l4 4 1.2-1.2-6-6.1-.9-.9v16.8z"/></svg><svg viewBox="0 0 24 24" id="space-add" xmlns="http://www.w3.org/2000/svg"><path fill="none" d="M0 0h24v24H0z"/><path d="M13.8 2.4h1.8v19.2h-1.8V2.4zm-5.5 0h1.8v19.2H8.3V2.4z"/><path fill-rule="evenodd" d="m1 12 5.5 4.4V7.6L1 12zm22 0-5.5-4.4v8.8L23 12z" clip-rule="evenodd"/></svg><svg viewBox="0 0 24 24" id="space-remove" xmlns="http://www.w3.org/2000/svg"><path fill="none" d="M0 0h24v24H0z"/><path d="M13.8 2.4h1.8v19.2h-1.8V2.4zm-5.5 0h1.8v19.2H8.3V2.4z"/><path fill-rule="evenodd" d="M6.5 12 1 16.4V7.6L6.5 12zm11 0L23 7.6v8.8L17.5 12z" clip-rule="evenodd"/></svg><svg viewBox="0 -32 512 512" id="star-empty" xmlns="http://www.w3.org/2000/svg"><path fill="currentColor" d="m469 165-153-12-60-142-60 142-153 12 116 102-35 149 132-80 132 80-35-150zM256 297l-80 48 21-92-71-61 94-9 36-86 36 86 94 9-70 62 21 92z"/></svg><svg viewBox="0 -32 512 512" id="star-full" xmlns="http://www.w3.org/2000/svg"><path fill="currentColor" d="m256 336 132 80-35-150 116-101-153-12-60-142-60 142-153 12 116 102-35 149z"/></svg><svg viewBox="0 -32 512 512" id="stop" xmlns="http://www.w3.org/2000/svg"><path fill="currentColor" d="M128 96h256v256H128V96z"/></svg><svg viewBox="0 -32 512 512" id="strikethrough" xmlns="http://www.w3.org/2000/svg"><path fill="currentColor" d="M213 373h86v-64h-86v64zM107 53v64h106v64h86v-64h106V53H107zM64 267h384v-43H64v43z"/></svg><svg viewBox="0 0 512 512" id="study" xmlns="http://www.w3.org/2000/svg"><path d="M282.5 130.9 256 85 58.5 427h52.3zm171 296.1L290.4 144.6l-27.7 47.8L374.5 386H150.4l-23.8 41z"/></svg><svg viewBox="0 0 24 24" id="subscription" xmlns="http://www.w3.org/2000/svg"><path d="M11.42 2v5.75H6.75v5.67H2V22h20V2Zm-.75 17.08H4v-2.83h6.67Zm4.75-5.66H8.75v-2.84h6.67Zm4.66-5.75h-6.66V4.83h6.66Z"/></svg><svg viewBox="0 -32 512 512" id="swap" xmlns="http://www.w3.org/2000/svg"><path fill="currentColor" d="m149 203-85 85 85 85v-64h150v-42H149v-64zm299-43-85-85v64H213v42h150v64z"/></svg><svg viewBox="0 0 24 24" id="tag" xmlns="http://www.w3.org/2000/svg"><path fill="currentColor" d="M17.63 5.84A2 2 0 0 0 16 5H5a2 2 0 0 0-2 2v10a2 2 0 0 0 2 2h11a2 2 0 0 0 1.63-.84L22 12Z"/></svg><svg viewBox="0 0 512 512" id="tasks" xmlns="http://www.w3.org/2000/svg"><path d="M277.3 160.9H469v42.6H277.3zm0 170.4H469v42.6H277.3zm-158.9-85.2L43 170.7l30-30.1 45.2 45.2 90.3-90.3 30 30zm0 170.4L43 341.1l30-30 45.2 45.1 90.3-90.3 30 30z"/></svg><svg viewBox="0 -32 512 512" id="team" xmlns="http://www.w3.org/2000/svg"><path fill="currentColor" d="M256 117V32H43v384h426V117H256zM128 373H85v-42h43v42zm0-85H85v-43h43v43zm0-85H85v-43h43v43zm0-86H85V75h43v42zm85 256h-42v-42h42v42zm0-85h-42v-43h42v43zm0-85h-42v-43h42v43zm0-86h-42V75h42v42zm214 256H256v-42h43v-43h-43v-43h43v-42h-43v-43h171v213zm-43-170h-43v42h43v-42zm0 85h-43v43h43v-43z"/></svg><svg viewBox="0 0 24 24" id="team-starred" xmlns="http://www.w3.org/2000/svg"><path d="M15.98 11.02H18v1.97h-2.02z"/><path d="M14 19h-2v-2h2v-2h-2v-2h2v-2h-2V9h8v4h2V7H12V3H2v18h12Zm-8 0H4v-2h2Zm0-4H4v-2h2Zm0-4H4V9h2Zm0-4H4V5h2Zm4 12H8v-2h2Zm0-4H8v-2h2Zm0-4H8V9h2Zm0-4H8V5h2Z"/><path d="m19.42 21.84 2.8 1.65-.64-3.18L24 18.14l-3.18-.25-1.28-3.06-1.27 3.06-3.18.25 2.42 2.17-.77 3.18Z"/></svg><svg viewBox="0 0 24 24" id="text-align-center" xmlns="http://www.w3.org/2000/svg"><path d="M7 15v2h10v-2H7zm-4 6h18v-2H3v2zm0-8h18v-2H3v2zm4-6v2h10V7H7zM3 3v2h18V3H3z"/><path fill="none" d="M0 0h24v24H0z"/></svg><svg viewBox="0 0 24 24" id="text-align-left" xmlns="http://www.w3.org/2000/svg"><path d="M15 15H3v2h12v-2zm0-8H3v2h12V7zM3 13h18v-2H3v2zm0 8h18v-2H3v2zM3 3v2h18V3H3z"/><path fill="none" d="M0 0h24v24H0z"/></svg><svg viewBox="0 0 24 24" id="text-align-right" xmlns="http://www.w3.org/2000/svg"><path d="M3 21h18v-2H3v2zm6-4h12v-2H9v2zm-6-4h18v-2H3v2zm6-4h12V7H9v2zM3 3v2h18V3H3z"/><path fill="none" d="M0 0h24v24H0z"/></svg><svg viewBox="0 0 24 24" id="text-justify" xmlns="http://www.w3.org/2000/svg"><path d="M3 21h18v-2H3v2zm0-4h18v-2H3v2zm0-4h18v-2H3v2zm0-4h18V7H3v2zm0-6v2h18V3H3z"/><path fill="none" d="M0 0h24v24H0z"/></svg><svg viewBox="0 -32 512 512" id="thumb-down" xmlns="http://www.w3.org/2000/svg"><path fill="currentColor" d="M320 32H128q-29 0-39 26L25 208q-4 7-4 16v43q0 17 13 29.5T64 309h134l-20 97-1 7q0 15 10 22l22 23 141-141q13-15 13-30V75q0-18-13-30.5T320 32zm85 0v256h86V32h-86z"/></svg><svg viewBox="0 -32 512 512" id="thumb-up" xmlns="http://www.w3.org/2000/svg"><path fill="currentColor" d="M21 416h86V160H21v256zm470-235q0-17-13-29.5T448 139H314l20-97 1-7q0-15-10-22l-23-24-140 141q-13 13-13 30v213q0 18 13 30.5t30 12.5h192q29 0 39-26l64-150q4-7 4-16v-43z"/></svg><svg viewBox="0 0 24 24" id="time" xmlns="http://www.w3.org/2000/svg"><path d="M12 2.5a9.5 9.5 0 1 0 9.5 9.5A9.52 9.52 0 0 0 12 2.5ZM16 16l-4.94-3V7.25h1.43v4.94l4.27 2.56Z"/></svg><svg viewBox="0 -32 512 512" id="title" xmlns="http://www.w3.org/2000/svg"><path fill="currentColor" d="M107 53v64h117v256h64V117h117V53H107z"/></svg><svg viewBox="0 -32 512 512" id="trash" xmlns="http://www.w3.org/2000/svg"><path fill="currentColor" d="M128 373q0 18 12.5 30.5T171 416h170q18 0 30.5-12.5T384 373V117H128v256zM405 53h-74l-22-21H203l-22 21h-74v43h298V53z"/></svg><svg viewBox="0 -32 512 512" id="tree" xmlns="http://www.w3.org/2000/svg"><path fill="currentColor" d="M364 355q-36 0-55 36H188q-15 0-15-15V252h136q15 36 55 36 25 0 42.5-17.5T424 229t-17.5-41.5T364 170q-40 0-55 37H173V88l-2-1q37-15 37-54 0-25-17.5-42T149-26q-25-1-42.5 16.5T89 32q0 39 38 55h1v289q0 25 17 42t43 17h121q15 39 55 39 25 0 42.5-17.5T424 415t-18-42-42-18zm0-152q10 0 18 7.5t8 18.5-8 18.5-18 7.5q-11 0-18.5-7.5T338 229t7.5-18.5T364 203zM148 6q11 0 18.5 7.5T174 32t-7.5 18.5T148 58q-10 0-18-8t-8-18 8-18 18-8zm216 436q-11 0-18.5-7.5T338 416t7.5-18.5T364 390q10 0 18 8t8 18-8 18-18 8z"/></svg><svg viewBox="0 0 24 24" id="twitter" xmlns="http://www.w3.org/2000/svg"><path d="m13.7 10.6 6.7-7.8h-1.6L13 9.6 8.4 2.8H3L10 13l-7 8.2h1.6l6.1-7.1 4.9 7.1H21l-7.3-10.6zm-2.2 2.5-.7-1L5.2 4h2.4l4.6 6.5.7 1 5.9 8.5h-2.4l-4.9-6.9z"/></svg><svg viewBox="0 -32 512 512" id="underlined" xmlns="http://www.w3.org/2000/svg"><path fill="currentColor" d="M256 331q52 0 90-37.5t38-90.5V32h-53v171q0 31-22 52.5T256 277t-53-21.5-22-52.5V32h-53v171q0 53 38 90.5t90 37.5zm-149 42v43h298v-43H107z"/></svg><svg viewBox="0 -32 512 512" id="undo" xmlns="http://www.w3.org/2000/svg"><path fill="currentColor" d="M267 139q-83 0-148 55l-76-77v192h192l-77-76q46-41 109-41 56 0 100.5 32.5T429 309l50-17q-22-67-80.5-110T267 139z"/></svg><svg viewBox="0 16 512 512" id="unlock" xmlns="http://www.w3.org/2000/svg"><path fill="currentColor" d="M386.585 257.856H185.634v-82.668c0-41.185 31.975-74.692 71.277-74.692s71.276 33.507 71.276 74.692c0 6.677 5.431 12.108 12.109 12.108h22.842c6.677 0 12.109-5.431 12.109-12.108 0-67.806-53.084-122.97-118.336-122.97s-118.336 55.164-118.336 122.97v82.668h-13.161c-12.482 0-22.602 10.119-22.602 22.602V437.18c0 12.482 10.119 22.602 22.602 22.602h261.17c12.482 0 22.602-10.119 22.602-22.602V280.458c.001-12.483-10.118-22.602-22.601-22.602z"/><path fill="none" d="M0 0h512v512H0z"/></svg><svg viewBox="0 0 24 24" id="unshare" xmlns="http://www.w3.org/2000/svg"><path fill="currentColor" d="M14 8a4 4 0 1 0-4 4 4 4 0 0 0 4-4Zm3 2v2h6v-2ZM2 18v2h16v-2c0-2.66-5.33-4-8-4s-8 1.34-8 4Z"/></svg><svg viewBox="0 0 512 512" id="up" xmlns="http://www.w3.org/2000/svg"><path d="m354 334.67-98-99-98 99L122.34 299 256 165.34 389.66 299Z"/></svg><svg viewBox="0 0 24 24" id="upload" xmlns="http://www.w3.org/2000/svg"><path d="M10.81 16.75V7.07l-3.08 3.09-1.67-1.72L12 2.5l5.94 5.94-1.66 1.72-3.09-3.09v9.68ZM2.5 21.5v-5.94h2.38v3.56h14.25v-3.56h2.37v5.94Z"/></svg><svg viewBox="0 0 24 24" id="upload-file" xmlns="http://www.w3.org/2000/svg"><path d="M14 2H6a2 2 0 0 0-2 2v16a2 2 0 0 0 2 2h12a2 2 0 0 0 2-2V8Zm.9 14-2.1-2.1v5.2h-1.6v-5.2L9.1 16 8 14.9l4-4 4.1 4ZM13 9V3.5L18.5 9Z"/></svg><svg viewBox="0 0 24 24" id="upload-folder" xmlns="http://www.w3.org/2000/svg"><path d="M20 6h-8l-2-2H4a2 2 0 0 0-2 2v12a2 2 0 0 0 2 2h16a2 2 0 0 0 2-2V8a2 2 0 0 0-2-2Zm-2 7.9-2.1-2.1V17h-1.6v-5.2L12.2 14l-1.1-1.1 4-4 4.1 4Z"/></svg><svg viewBox="0 0 24 24" id="user-repository" xmlns="http://www.w3.org/2000/svg"><path fill="none" d="M0 0h24v24H0z"/><path d="M21 5v14h2V5h-2zm-4 14h2V5h-2v14zM14 5H2c-.55 0-1 .45-1 1v12c0 .55.45 1 1 1h12c.55 0 1-.45 1-1V6c0-.55-.45-1-1-1zM8 7.75c1.24 0 2.25 1.01 2.25 2.25S9.24 12.25 8 12.25 5.75 11.24 5.75 10 6.76 7.75 8 7.75zM12.5 17h-9v-.75c0-1.5 3-2.25 4.5-2.25s4.5.75 4.5 2.25V17z"/></svg><svg viewBox="0 0 24 24" id="vimeo" xmlns="http://www.w3.org/2000/svg"><path fill="none" d="M0 0h24v24H0V0z"/><path d="M21.8 7.4c-.1 1.9-1.4 4.5-4 7.8-2.7 3.5-4.9 5.2-6.8 5.2-1.1 0-2.1-1.1-2.9-3.2l-1.6-5.8c-.5-2-1.2-3.1-1.8-3.1-.2 0-.7.4-1.6 1l-.9-1.2c1-.8 1.9-1.7 2.9-2.5C6.4 4.4 7.3 3.8 8 3.8c1.5-.1 2.5.9 2.8 3.1.4 2.4.6 3.9.8 4.5.4 2 .9 3 1.5 3 .4 0 1-.6 1.8-1.9.8-1.3 1.3-2.3 1.3-3 .1-1.1-.3-1.7-1.3-1.7-.5 0-1 .1-1.4.3 1-3.2 2.8-4.7 5.5-4.6 1.9.1 2.9 1.4 2.8 3.9z"/></svg><svg viewBox="0 0 24 24" id="wait" xmlns="http://www.w3.org/2000/svg"><path d="M6.3 2.5v5.7l3.8 3.8-3.8 3.8v5.7h11.4v-5.7L13.9 12l3.8-3.8V2.5Zm9.5 14.06v3H8.2v-3l3.8-3.8Z"/></svg><svg viewBox="0 0 24 24" id="warning" xmlns="http://www.w3.org/2000/svg"><path d="M12 2 1 21h22Zm1.16 17h-2.33v-2.39h2.33Zm-2.33-4.67v-7h2.33v7Z"/></svg><svg viewBox="0 0 24 24" id="webapp" xmlns="http://www.w3.org/2000/svg"><path d="M20 4H4c-1.1 0-1.99.9-1.99 2L2 18c0 1.1.9 2 2 2h16c1.1 0 2-.9 2-2V6c0-1.1-.9-2-2-2zm-5 14H4v-4h11v4zm0-5H4V9h11v4zm5 5h-4V9h4v9z"/><path fill="none" d="M0 0h24v24H0z"/></svg><svg viewBox="0 0 24 24" id="website" xmlns="http://www.w3.org/2000/svg"><path fill="none" d="M0 0h24v24H0z"/><path d="M11.99 2C6.47 2 2 6.48 2 12s4.47 10 9.99 10C17.52 22 22 17.52 22 12S17.52 2 11.99 2zm6.93 6h-2.95a15.65 15.65 0 0 0-1.38-3.56A8.03 8.03 0 0 1 18.92 8zM12 4.04c.83 1.2 1.48 2.53 1.91 3.96h-3.82c.43-1.43 1.08-2.76 1.91-3.96zM4.26 14C4.1 13.36 4 12.69 4 12s.1-1.36.26-2h3.38c-.08.66-.14 1.32-.14 2 0 .68.06 1.34.14 2H4.26zm.82 2h2.95c.32 1.25.78 2.45 1.38 3.56A7.987 7.987 0 0 1 5.08 16zm2.95-8H5.08a7.987 7.987 0 0 1 4.33-3.56A15.65 15.65 0 0 0 8.03 8zM12 19.96c-.83-1.2-1.48-2.53-1.91-3.96h3.82c-.43 1.43-1.08 2.76-1.91 3.96zM14.34 14H9.66c-.09-.66-.16-1.32-.16-2 0-.68.07-1.35.16-2h4.68c.09.65.16 1.32.16 2 0 .68-.07 1.34-.16 2zm.25 5.56c.6-1.11 1.06-2.31 1.38-3.56h2.95a8.03 8.03 0 0 1-4.33 3.56zM16.36 14c.08-.66.14-1.32.14-2 0-.68-.06-1.34-.14-2h3.38c.16.64.26 1.31.26 2s-.1 1.36-.26 2h-3.38z"/></svg><svg viewBox="0 -32 512 512" id="widgets" xmlns="http://www.w3.org/2000/svg"><path fill="currentColor" d="M277 245v171h171V245H277zM64 416h171V245H64v171zm0-384v171h171V32H64zM355 4 235 125l120 120 121-120z"/></svg><svg viewBox="0 -32 512 512" id="workflow" xmlns="http://www.w3.org/2000/svg"><path fill="currentColor" d="m363 309-86-85v-68q19-7 31-23t12-37q0-26-19-45t-45-19-45 19-19 45q0 21 12 37t31 23v68l-86 85H64v107h107v-65l85-90 85 90v65h107V309h-85z"/></svg><svg viewBox="0 0 24 24" id="youtube" xmlns="http://www.w3.org/2000/svg"><path fill="none" d="M0 0h24v24H0V0z"/><path d="M21.6 7.2c-.2-.9-.9-1.5-1.8-1.8C18.2 5 12 5 12 5s-6.2 0-7.8.4c-.9.2-1.5.9-1.8 1.8C2 8.7 2 12 2 12s0 3.3.4 4.8c.2.9.9 1.5 1.8 1.8 1.6.4 7.8.4 7.8.4s6.2 0 7.8-.4c.9-.2 1.5-.9 1.8-1.8.4-1.5.4-4.8.4-4.8s0-3.3-.4-4.8zM10 15V9l5.2 3-5.2 3z"/></svg><svg viewBox="0 -32 512 512" id="zoom-in" xmlns="http://www.w3.org/2000/svg"><path fill="currentColor" d="M331 267h-17l-7-6q33-36 33-90 0-58-40.5-98.5T202 32q-58 0-98 40.5T64 171q0 57 40.5 97.5T203 309q52 0 90-33l6 7v16l106 106 32-32zm-128 0q-40 0-68-28t-28-68q0-41 27.5-68.5T203 75q40 0 68 28t28 68-28 68-68 28zm53-86h-43v43h-21v-43h-43v-21h43v-43h21v43h43v21z"/></svg><svg viewBox="0 -32 512 512" id="zoom-out" xmlns="http://www.w3.org/2000/svg"><path fill="currentColor" d="M331 267h-17l-7-6q33-36 33-90 0-58-40.5-98.5T202 32q-58 0-98 40.5T64 171q0 57 40.5 97.5T203 309q52 0 90-33l6 7v16l106 106 32-32zm-128 0q-40 0-68-28t-28-68q0-41 27.5-68.5T203 75q40 0 68 28t28 68-28 68-68 28zm-54-107h107v21H149v-21z"/></svg><svg viewBox="0 0 24 24" id="zoom-reset" xmlns="http://www.w3.org/2000/svg"><path fill="none" d="M0 0h24v24H0V0zm0 0h24v24H0V0z"/><path d="M17.01 14h-.8l-.27-.27a6.451 6.451 0 0 0 1.57-4.23c0-3.59-2.91-6.5-6.5-6.5s-6.5 3-6.5 6.5H2l3.84 4 4.16-4H6.51a4.5 4.5 0 0 1 9 0 4.507 4.507 0 0 1-6.32 4.12L7.71 15.1a6.474 6.474 0 0 0 7.52-.67l.27.27v.79l5.01 4.99L22 19l-4.99-5z"/></svg></svg>