<?xml version="1.0" encoding="utf-8"?><svg xmlns="http://www.w3.org/2000/svg" xmlns:xlink="http://www.w3.org/1999/xlink"><symbol xml:space="preserve" style="enable-background:new 0 0 16 16" viewBox="0 0 16 16" id="3D" xmlns="http://www.w3.org/2000/svg"><path d="M1.6 15.5c-.606 0-1.1-.494-1.1-1.101V1.6C.5.994.994.5 1.6.5h12.8c.606 0 1.1.494 1.1 1.1v12.8c0 .606-.493 1.101-1.1 1.101L1.6 15.5z" style="fill:#f8fafc"/><path d="M14.4 1c.325 0 .6.275.6.6v12.8c0 .325-.275.6-.6.6H1.6a.608.608 0 0 1-.6-.6V1.6c0-.325.275-.6.6-.6h12.8m0-1H1.6C.72 0 0 .72 0 1.6v12.8c0 .88.72 1.6 1.6 1.6h12.8c.88 0 1.6-.72 1.6-1.6V1.6c0-.88-.72-1.6-1.6-1.6z" style="fill:#515f6c"/><path d="m4.236 6.828-1.46-.262c.122-.466.355-.822.7-1.07.344-.247.833-.371 1.465-.371.726 0 1.25.135 1.574.405.323.271.485.611.485 1.021 0 .24-.066.458-.197.652-.131.195-.33.366-.596.513.215.053.379.115.493.186.185.114.328.264.431.449.103.187.154.408.154.666 0 .323-.085.634-.254.931a1.702 1.702 0 0 1-.732.687c-.319.161-.737.241-1.255.241-.506 0-.905-.06-1.197-.178a1.794 1.794 0 0 1-.721-.522 2.41 2.41 0 0 1-.434-.864l1.544-.205c.06.312.154.527.282.647.127.12.29.181.487.181.207 0 .38-.076.518-.228s.207-.354.207-.607c0-.258-.066-.457-.199-.599s-.313-.213-.541-.213c-.122 0-.289.03-.501.091l.08-1.104c.086.013.153.02.201.02.203 0 .371-.065.506-.194s.204-.282.204-.459a.546.546 0 0 0-.152-.405c-.101-.102-.24-.151-.417-.151a.616.616 0 0 0-.444.164c-.114.109-.191.303-.231.578zM8.192 5.22h2.553c.503 0 .91.068 1.219.205.31.136.566.332.768.588.203.255.349.553.44.891.091.339.137.698.137 1.078 0 .594-.068 1.055-.203 1.382a2.271 2.271 0 0 1-.563.823c-.24.222-.498.369-.774.442a3.99 3.99 0 0 1-1.024.151H8.192V5.22zM9.91 6.479v3.039h.421c.359 0 .615-.04.766-.12.152-.079.271-.219.356-.417s.129-.521.129-.965c0-.59-.096-.993-.289-1.211-.192-.217-.511-.326-.956-.326H9.91z" style="fill:#3f4d5a"/></symbol><symbol viewBox="0 0 16 16" id="CAD" xmlns="http://www.w3.org/2000/svg"><path d="M1.6 15.5a1.11 1.11 0 0 1-1.1-1.1V1.6A1.11 1.11 0 0 1 1.6.5h12.8a1.11 1.11 0 0 1 1.1 1.1v12.8a1.11 1.11 0 0 1-1.1 1.1Z" style="fill:#f8fafc"/><path d="M5.9 6.1h1v1h-1Z" style="fill:#24417f"/><path d="M14.4 0H1.6A1.58 1.58 0 0 0 0 1.6v12.8A1.58 1.58 0 0 0 1.6 16h12.8a1.58 1.58 0 0 0 1.6-1.6V1.6A1.58 1.58 0 0 0 14.4 0ZM1 1.6a.65.65 0 0 1 .6-.6h4.3v3H3.7v2.1H1ZM5.9 15H1.6a.65.65 0 0 1-.6-.6V7.1h2.7v2.1h2.1V15ZM4.7 8.2V5H8v3.2ZM15 14.4a.65.65 0 0 1-.6.6H6.9V9.2H9V7.1h6Zm0-8.3H9V4H6.9V1h7.5a.65.65 0 0 1 .6.6Z" style="fill:#24417f"/></symbol><symbol xml:space="preserve" style="enable-background:new 0 0 16 16" viewBox="0 0 16 16" id="audio" xmlns="http://www.w3.org/2000/svg"><path d="M1.6 15.5C1 15.5.5 15 .5 14.4V1.6C.5 1 1 .5 1.6.5h12.8c.6 0 1.1.5 1.1 1.1v12.8c0 .6-.5 1.1-1.1 1.1H1.6z" style="fill:#f8fafc"/><path d="M14.4 1c.3 0 .6.3.6.6v12.8c0 .3-.3.6-.6.6H1.6c-.3 0-.6-.3-.6-.6V1.6c0-.3.3-.6.6-.6h12.8m0-1H1.6C.7 0 0 .7 0 1.6v12.8c0 .9.7 1.6 1.6 1.6h12.8c.9 0 1.6-.7 1.6-1.6V1.6c0-.9-.7-1.6-1.6-1.6z" style="fill:#515f6c"/><path d="M8 3.6c-2.5 0-4.4 2-4.4 4.4v3.1c0 .7.6 1.3 1.3 1.3h.4c.7 0 1.3-.6 1.3-1.3V9.8c0-.7-.6-1.3-1.3-1.3h-.9V8C4.4 6 6 4.4 8 4.4S11.6 6 11.6 8v.4h-.9c-.8 0-1.4.6-1.4 1.4v1.3c0 .7.6 1.3 1.3 1.3h.4c.7 0 1.3-.6 1.3-1.3V8c.1-2.5-1.8-4.4-4.3-4.4z" style="fill:#3f4d5a"/></symbol><symbol xml:space="preserve" style="enable-background:new 0 0 16 16" viewBox="0 0 16 16" id="bp-simulation" xmlns="http://www.w3.org/2000/svg"><path d="M14.44 0H1.6A1.58 1.58 0 0 0 0 1.56V14.4A1.58 1.58 0 0 0 1.56 16H14.4a1.58 1.58 0 0 0 1.6-1.56V1.6A1.58 1.58 0 0 0 14.44 0zm-1.8 12.775h-1.188v-.834a5.222 5.222 0 0 1-3.283 1.321l-.21.001-.005.001a5.24 5.24 0 0 1-5.25-5.045v-.28H3.9v.264a4.047 4.047 0 0 0 4.053 3.878h.004a4.111 4.111 0 0 0 2.936-1.275l.318-.346.493-.592c.155-.169.342-.128.342-.128.338.009.6.282.594.612v2.423zM7.119 9.896V6.104l3.01 1.876-3.01 1.916zm6.087-1.836h-1.193v-.265a4.046 4.046 0 0 0-4.052-3.878h-.004A4.124 4.124 0 0 0 5.01 5.182l-.307.327-.492.592c-.141.149-.331.147-.331.147a.598.598 0 0 1-.594-.602V3.254h1.213v.809a5.204 5.204 0 0 1 3.462-1.327 5.258 5.258 0 0 1 5.245 5.043v.281z" style="fill:#2680c0"/><path d="M12.64 12.775h-1.188v-.834a5.222 5.222 0 0 1-3.283 1.321l-.21.001-.005.001a5.24 5.24 0 0 1-5.25-5.045v-.28H3.9v.264a4.047 4.047 0 0 0 4.053 3.878h.004a4.111 4.111 0 0 0 2.936-1.275l.318-.346.493-.592c.155-.169.342-.128.342-.128.338.009.6.282.594.612v2.423z" style="fill:#fff"/><path d="M7.119 9.896V6.104l3.01 1.876z" style="fill:#fff"/><path d="M13.206 8.06h-1.193v-.265a4.046 4.046 0 0 0-4.052-3.878h-.004A4.124 4.124 0 0 0 5.01 5.182l-.307.327-.492.592c-.141.149-.331.147-.331.147a.598.598 0 0 1-.594-.602V3.254h1.213v.809a5.204 5.204 0 0 1 3.462-1.327 5.258 5.258 0 0 1 5.245 5.043v.281z" style="fill:#fff"/></symbol><symbol xml:space="preserve" style="enable-background:new 0 0 16 16" viewBox="0 0 16 16" id="bpmn" xmlns="http://www.w3.org/2000/svg"><path d="M14.4 0H1.6C.7 0 0 .7 0 1.6v12.8c0 .9.7 1.6 1.6 1.6h12.8c.9 0 1.6-.7 1.6-1.6V1.6c0-.9-.7-1.6-1.6-1.6zM4.5 10.3c-1.3 0-2.3-1-2.3-2.3s1-2.3 2.3-2.3 2.3 1 2.3 2.3-1 2.3-2.3 2.3zm6.724.452-.813-.816 1.299-1.311H8.601V7.479h3.168l-1.372-1.435.813-.814 2.712 2.823-2.698 2.699z" style="fill:#45a9b0"/></symbol><symbol xml:space="preserve" style="enable-background:new 0 0 16 16" viewBox="0 0 16 16" id="code" xmlns="http://www.w3.org/2000/svg"><path d="M1.6 15.5C1 15.5.5 15 .5 14.4V1.6C.5 1 1 .5 1.6.5h12.8c.6 0 1.1.5 1.1 1.1v12.8c0 .6-.5 1.1-1.1 1.1H1.6z" style="fill:#fbfafc"/><path d="M14.4 1c.3 0 .6.3.6.6v12.8c0 .3-.3.6-.6.6H1.6c-.3 0-.6-.3-.6-.6V1.6c0-.3.3-.6.6-.6h12.8m0-1H1.6C.7 0 0 .7 0 1.6v12.8c0 .9.7 1.6 1.6 1.6h12.8c.9 0 1.6-.7 1.6-1.6V1.6c0-.9-.7-1.6-1.6-1.6z" style="fill:#515f6c"/><path d="M5.4 5.1 2.5 8l2.9 2.9 1.3-1.3L5.1 8l1.6-1.6-1.3-1.3zm5.2 0L9.3 6.4 10.9 8 9.3 9.6l1.3 1.3L13.5 8l-2.9-2.9z" style="fill:#3f4d5a"/></symbol><symbol viewBox="0 0 16 16" id="dataset" xmlns="http://www.w3.org/2000/svg"><path d="M14.4 0H1.6A1.58 1.58 0 0 0 0 1.6v12.8A1.58 1.58 0 0 0 1.6 16h12.8a1.58 1.58 0 0 0 1.6-1.6V1.6A1.58 1.58 0 0 0 14.4 0Z" style="fill:#ef6b2e"/><path d="M12 3H4a.94.94 0 0 0-1 1v8a1 1 0 0 0 1 1h8a1 1 0 0 0 1-1V4a.94.94 0 0 0-1-1Zm-6 9H4v-2h2Zm0-3H4V7h2Zm6-3H4V4h8Zm-3 6H7v-2h2Zm0-3H7V7h2Zm3 3h-2v-2h2Zm0-3h-2V7h2Z" style="fill:#fff"/></symbol><symbol xml:space="preserve" style="enable-background:new 0 0 16 16" viewBox="0 0 16 16" id="dmn" xmlns="http://www.w3.org/2000/svg"><path d="M14.4 0H1.6C.7 0 0 .7 0 1.6v12.8c0 .9.7 1.6 1.6 1.6h12.8c.9 0 1.6-.7 1.6-1.6V1.6c0-.9-.7-1.6-1.6-1.6zM2.7 4.1h10.6V6H2.7V4.1zm1.9 7.8H2.7V10h1.9v1.9zm0-3H2.7V7h1.9v1.9zm1.1 3V10h7.6v1.9H5.7zm0-3V7h7.6v1.9H5.7z" style="fill:#8562c6"/></symbol><symbol viewBox="0 0 16 16" id="excel" xmlns="http://www.w3.org/2000/svg"><path d="M1.6 15.5a1.1 1.1 0 0 1-1.1-1.1V1.6A1.1 1.1 0 0 1 1.6.5h12.8a1.1 1.1 0 0 1 1.1 1.1v12.8a1.1 1.1 0 0 1-1.1 1.1Z" style="fill:#f8fafc"/><path d="M14.4 1a.61.61 0 0 1 .6.6v12.8a.6.6 0 0 1-.6.6H1.6a.61.61 0 0 1-.6-.6V1.6a.62.62 0 0 1 .6-.6h12.8m0-1H1.6A1.6 1.6 0 0 0 0 1.6v12.8A1.6 1.6 0 0 0 1.6 16h12.8a1.6 1.6 0 0 0 1.6-1.6V1.6A1.6 1.6 0 0 0 14.4 0Z" style="fill:#2f8332"/><path d="m8 9.18 1.42 2.66h2.14L9.21 8l2.34-3.81H9.49L8.1 6.74 6.8 4.17H4.62L6.89 8l-2.48 3.84h2.16Z" style="fill:#2f8332"/></symbol><symbol xml:space="preserve" style="enable-background:new 0 0 16 12.8" viewBox="0 0 16 12.8" id="folder" xmlns="http://www.w3.org/2000/svg"><path d="M0 4.5v6.6c0 .9.7 1.6 1.6 1.6h12.8c.9 0 1.6-.7 1.6-1.6V4.5H0zm16-1v-.3c0-.9-.7-1.6-1.6-1.6H8L6.4 0H1.6C.7 0 0 .7 0 1.6v1.9h16z" style="fill:#1870af"/></symbol><symbol viewBox="0 0 16 12.8" id="folder-zip" xmlns="http://www.w3.org/2000/svg"><path d="M3.9 9h1.6v1.6H3.9Z" style="fill:#1870af"/><path d="M14.4 1.6H8L6.4 0H4.8v1.6h1.6v1.6H4.8v1.6h1.6v6.5H3.1V6.5h1.6V4.9H3.1V3.3h1.6V1.6H3.1V0H1.6A1.58 1.58 0 0 0 0 1.6v9.6a1.58 1.58 0 0 0 1.6 1.6h12.8a1.58 1.58 0 0 0 1.6-1.6v-8a1.58 1.58 0 0 0-1.6-1.6Z" style="fill:#1870af"/></symbol><symbol viewBox="0 0 16 16" id="image" xmlns="http://www.w3.org/2000/svg"><path d="M1.6 15.5a1.11 1.11 0 0 1-1.1-1.1V1.6A1.11 1.11 0 0 1 1.6.5h12.8a1.11 1.11 0 0 1 1.1 1.1v12.8a1.11 1.11 0 0 1-1.1 1.1Z" style="fill:#f8fafc"/><path d="M14.4 1a.65.65 0 0 1 .6.6v12.8a.65.65 0 0 1-.6.6H1.6a.65.65 0 0 1-.6-.6V1.6a.65.65 0 0 1 .6-.6h12.8m0-1H1.6A1.58 1.58 0 0 0 0 1.6v12.8A1.58 1.58 0 0 0 1.6 16h12.8a1.58 1.58 0 0 0 1.6-1.6V1.6A1.58 1.58 0 0 0 14.4 0Z" style="fill:#515f6c"/><path d="m5.3 8.9 1.9 2.3 2.7-3.5 3.5 4.6H2.6Z" style="fill:#3f4d5a"/><circle cx="6.6" cy="5.3" r="1.7" style="fill:#3f4d5a"/></symbol><symbol xml:space="preserve" style="enable-background:new 0 0 16 16" viewBox="0 0 16 16" id="matlab" xmlns="http://www.w3.org/2000/svg"><path d="M1.6 15.5a1.11 1.11 0 0 1-1.1-1.1V1.6A1.11 1.11 0 0 1 1.6.5h12.8a1.11 1.11 0 0 1 1.1 1.1v12.8a1.11 1.11 0 0 1-1.1 1.1H1.6z" style="fill:#f8fafc"/><path d="M14.4 1a.65.65 0 0 1 .6.6v12.8a.65.65 0 0 1-.6.6H1.6a.65.65 0 0 1-.6-.6V1.6a.65.65 0 0 1 .6-.6h12.8m0-1H1.6A1.58 1.58 0 0 0 0 1.56V14.4A1.58 1.58 0 0 0 1.56 16H14.4a1.58 1.58 0 0 0 1.6-1.56V1.6A1.58 1.58 0 0 0 14.44 0h-.04z" style="fill:#004b87"/><path d="M4.481 10.003c-.524-.376-1.226-.888-1.993-1.429.907-.376 1.765-.659 2.69-1.045l1.133.85c-.883.944-1.389 1.298-1.83 1.624zM11.89 7.11c-.198-.549-.373-1.115-.569-1.669-.213-.599-.434-1.176-.727-1.687-.123-.213-.426-.707-.749-.707a.43.43 0 0 0-.236.085c-.21.135-.468.569-.599.802-.196.351-.587.93-.875 1.268-.095.113-.188.246-.3.341-.176.148-.402.349-.63.442-.07.03-.16.04-.236.068a1.37 1.37 0 0 0-.451.253c-.235.197-.451.456-.644.694-.042.052-.097.128-.155.198l1.01.787c.792-.938 1.665-1.835 2.296-3.527 0 0-.218 1.885-1.847 3.835-1 1.198-1.862 1.825-1.983 1.95 0 0 .301-.053.529.04.526.216.802.978 1.033 1.524.16.384.343.775.504 1.166.524-.115.877-.373 1.223-.664.373-.316.709-.737 1.025-1.115.612-.727 1.391-1.717 2.314-1.263.15.075.316.183.439.283.188.15.338.306.519.459.318.268.486.479.732.624-.627-1.354-1.1-2.732-1.624-4.186l.001-.001z" style="fill:#004b87"/></symbol><symbol xml:space="preserve" style="enable-background:new 0 0 12.8 16" viewBox="0 0 12.8 16" id="not-recognized" xmlns="http://www.w3.org/2000/svg"><path d="M7.981 0H1.596C.718 0 .008.718.008 1.596L0 14.366c0 .878.71 1.596 1.588 1.596h9.586a1.6 1.6 0 0 0 1.596-1.596V4.789L7.981 0z" style="fill:#515f6c"/><path d="m11.025 14.841-9.353-.001a.551.551 0 0 1-.551-.551V1.829c0-.391.317-.708.708-.708h5.828v3.991h3.991v9.106a.622.622 0 0 1-.623.623z" style="fill:#f8fafc"/></symbol><symbol viewBox="0 0 16 16" id="pdf" xmlns="http://www.w3.org/2000/svg"><path d="M1.6 15.5a1.1 1.1 0 0 1-1.1-1.1V1.6A1.1 1.1 0 0 1 1.6.5h12.8a1.1 1.1 0 0 1 1.1 1.1v12.8a1.1 1.1 0 0 1-1.1 1.1Z" style="fill:#f8fafc"/><path d="M14.4 1a.6.6 0 0 1 .6.6v12.8a.6.6 0 0 1-.6.6H1.6a.61.61 0 0 1-.6-.6V1.6a.62.62 0 0 1 .6-.6h12.8m0-1H1.6A1.6 1.6 0 0 0 0 1.6v12.8A1.6 1.6 0 0 0 1.6 16h12.8a1.6 1.6 0 0 0 1.6-1.6V1.6A1.6 1.6 0 0 0 14.4 0Z" style="fill:#bb2525"/><path d="M3 10V6h1.8a1.29 1.29 0 0 1 .49.08 1.1 1.1 0 0 1 .37.25 1.07 1.07 0 0 1 .24.4 1.59 1.59 0 0 1 .08.5 1.65 1.65 0 0 1-.08.51 1 1 0 0 1-.24.38.87.87 0 0 1-.37.25 1.3 1.3 0 0 1-.49.09h-1V10Zm.76-2.17h1a.47.47 0 0 0 .34-.12.39.39 0 0 0 .13-.33v-.27a.39.39 0 0 0-.13-.33.47.47 0 0 0-.34-.12h-1ZM6.68 6h1.45a2 2 0 0 1 .71.12 1.36 1.36 0 0 1 .54.38 1.62 1.62 0 0 1 .35.62 2.86 2.86 0 0 1 .12.88 2.86 2.86 0 0 1-.12.87 1.62 1.62 0 0 1-.35.62 1.47 1.47 0 0 1-.54.38 2 2 0 0 1-.71.12H6.68Zm1.45 3.32a.94.94 0 0 0 .68-.24 1.08 1.08 0 0 0 .24-.77v-.63a1.07 1.07 0 0 0-.24-.76 1 1 0 0 0-.68-.25h-.69v2.65Zm2.49.67V6h2.56v.66h-1.81v1H13v.67h-1.63V10Z" style="fill:#bb2525"/></symbol><symbol xml:space="preserve" style="enable-background:new 0 0 16 16" viewBox="0 0 16 16" id="powerpoint" xmlns="http://www.w3.org/2000/svg"><path d="M1.6 15.5c-.606 0-1.1-.493-1.1-1.1V1.6C.5.994.993.5 1.6.5h12.8c.606 0 1.101.494 1.101 1.1v12.8c0 .606-.494 1.1-1.101 1.1H1.6z" style="fill:#f8fafc"/><path d="M14.4 1c.325 0 .6.275.6.6v12.8c0 .325-.275.6-.6.6H1.6a.608.608 0 0 1-.6-.6V1.6c0-.325.275-.6.6-.6h12.8m0-1H1.6C.72 0 0 .72 0 1.6v12.8c0 .88.72 1.6 1.6 1.6h12.8c.88 0 1.6-.72 1.6-1.6V1.6c0-.88-.72-1.6-1.6-1.6z" style="fill:#be4f23"/><path d="M10.799 5.519a2.051 2.051 0 0 0-.609-.769 2.546 2.546 0 0 0-.911-.434A4.563 4.563 0 0 0 8.14 4.18H5.054v7.639H6.84v-2.66h1.209c.369 0 .736-.055 1.088-.165.342-.104.663-.266.95-.479.28-.207.512-.473.678-.78.176-.333.264-.706.255-1.083a2.638 2.638 0 0 0-.221-1.133zM9.034 7.137a.929.929 0 0 1-.301.267c-.128.07-.266.118-.41.142a2.507 2.507 0 0 1-.432.04h-1.05V5.674h1.094c.311-.015.62.062.887.222a.91.91 0 0 1 .33.814.71.71 0 0 1-.118.427z" style="fill:#be4f23"/></symbol><symbol viewBox="0 0 16 16" id="prj" xmlns="http://www.w3.org/2000/svg"><path d="M14.4 0H1.6A1.6 1.6 0 0 0 0 1.6v12.8A1.6 1.6 0 0 0 1.6 16h12.8a1.6 1.6 0 0 0 1.6-1.6V1.6A1.6 1.6 0 0 0 14.4 0Z" style="fill:#12739e"/><path d="M4.11 6.87v.59a2 2 0 0 1 1.41-.69c.53 0 .84.2.94.6a1.9 1.9 0 0 1 1.32-.6 1 1 0 0 1 .78.28.94.94 0 0 1 .19.78l-.36 2.77H7l.33-2.39c0-.19 0-.29-.21-.29a1.23 1.23 0 0 0-.72.37l-.29 2.31H4.8l.33-2.39a.33.33 0 0 0 0-.23.22.22 0 0 0-.18-.06 1.37 1.37 0 0 0-.74.35l-.33 2.33H2.53l.52-3.73Zm9.21-.37h-1.77a.52.52 0 0 0-.32.07.38.38 0 0 0-.12.27l-.1.72h1.88l-.13 1h-1.89l-.29 2.09H9.17l.57-4.1a1.23 1.23 0 0 1 .42-.81A1.28 1.28 0 0 1 11 5.4a21.13 21.13 0 0 1 2.45.1Z" style="fill:#fff"/></symbol><symbol xml:space="preserve" style="enable-background:new 0 0 16 16" viewBox="0 0 16 16" id="project" xmlns="http://www.w3.org/2000/svg"><path d="M14.4 0H1.6m0 16h12.8m0-16H1.6C.7 0 0 .7 0 1.6v12.8c0 .9.7 1.6 1.6 1.6h12.8c.9 0 1.6-.7 1.6-1.6V1.6c0-.9-.7-1.6-1.6-1.6z" style="fill:#04848b"/><path d="m11.5 10.4-1.3-1.3V5.6H6.7L5.4 4.3h4.8V2.8h1.3v1.5h1.7v1.3h-1.7v4.8zM3 4.1v8.5c0 .2.1.4.4.4h8.5L3 4.1zm1.3 7.6V7.5l4.2 4.2H4.3z" style="fill:#fff"/></symbol><symbol xml:space="preserve" style="enable-background:new 0 0 16 16" viewBox="0 0 16 16" id="rsm" xmlns="http://www.w3.org/2000/svg"><path d="M14.4 0H1.6C.7 0 0 .7 0 1.6v12.8c0 .9.7 1.6 1.6 1.6h12.8c.9 0 1.6-.7 1.6-1.6V1.6c0-.9-.7-1.6-1.6-1.6z" style="fill:#4b73b4"/><path d="M8.8 9.3v3.1H6.3v-7C7.2 6.6 7.9 8 8.8 9.3zm4.3 1.9v1.3H9.9v-2.3c.8.6 1.8 1 3.2 1zM5.2 4.3v8.1H2.9V3.6c1.1 0 1.7.3 2.3.7z" style="fill:#fff"/></symbol><symbol xml:space="preserve" style="enable-background:new 0 0 16 16" viewBox="0 0 16 16" id="session" xmlns="http://www.w3.org/2000/svg"><path d="M14.4 0H1.6C.7 0 0 .7 0 1.6v12.8c0 .9.7 1.6 1.6 1.6h12.8c.9 0 1.6-.7 1.6-1.6V1.6c0-.9-.7-1.6-1.6-1.6z" style="fill:#ef6b2e"/><path d="M12 3H4c-.6 0-1 .4-1 1v8c0 .5.4 1 1 1h8c.5 0 1-.4 1-1V4c0-.6-.4-1-1-1zm-6 9H4v-2h2v2zm0-3H4V7h2v2zm0-3H4V4h2v2zm3 6H7v-2h2v2zm0-3H7V7h2v2zm0-3H7V4h2v2zm3 6h-2v-2h2v2zm0-3h-2V7h2v2zm0-3h-2V4h2v2z" style="fill:#fff"/></symbol><symbol viewBox="0 0 16 16" id="sheet" xmlns="http://www.w3.org/2000/svg"><path d="M1.6 15.5a1.11 1.11 0 0 1-1.1-1.1V1.6A1.11 1.11 0 0 1 1.6.5h12.8a1.11 1.11 0 0 1 1.1 1.1v12.8a1.11 1.11 0 0 1-1.1 1.1Z" style="fill:#f8fafc"/><path d="M14.4 1a.65.65 0 0 1 .6.6v12.8a.65.65 0 0 1-.6.6H1.6a.65.65 0 0 1-.6-.6V1.6a.65.65 0 0 1 .6-.6h12.8m0-1H1.6A1.58 1.58 0 0 0 0 1.6v12.8A1.58 1.58 0 0 0 1.6 16h12.8a1.58 1.58 0 0 0 1.6-1.6V1.6A1.58 1.58 0 0 0 14.4 0Z" style="fill:#2f8332"/><path d="M3.4 5.2h1.9v1.9H3.4Zm3.7 0h5.6v1.9H7.1ZM3.4 8.9h1.9v1.9H3.4Zm3.7 0h5.6v1.9H7.1Z" style="fill:#2f8332"/></symbol><symbol xml:space="preserve" style="enable-background:new 0 0 16 16" viewBox="0 0 16 16" id="study" xmlns="http://www.w3.org/2000/svg"><path d="M14.4 0H1.6C.7 0 0 .7 0 1.6v12.8c0 .9.7 1.6 1.6 1.6h12.8c.9 0 1.6-.7 1.6-1.6V1.6c0-.9-.7-1.6-1.6-1.6z" style="fill:#ad45b8"/><path d="M8.7 4.2 8 3l-5.2 9h1.4l4.5-7.8zm4.5 7.7L8.9 4.5l-.7 1.3 2.9 5.1H5.2L4.6 12h8.6z" style="fill:#fff"/></symbol><symbol xml:space="preserve" style="enable-background:new 0 0 16 16" viewBox="0 0 16 16" id="text" xmlns="http://www.w3.org/2000/svg"><path d="M1.6 15.5C1 15.5.5 15 .5 14.4V1.6C.5 1 1 .5 1.6.5h12.8c.6 0 1.1.5 1.1 1.1v12.8c0 .6-.5 1.1-1.1 1.1H1.6z" style="fill:#f8fafc"/><path d="M14.4 1c.3 0 .6.3.6.6v12.8c0 .3-.3.6-.6.6H1.6c-.3 0-.6-.3-.6-.6V1.6c0-.3.3-.6.6-.6h12.8m0-1H1.6C.7 0 0 .7 0 1.6v12.8c0 .9.7 1.6 1.6 1.6h12.8c.9 0 1.6-.7 1.6-1.6V1.6c0-.9-.7-1.6-1.6-1.6z" style="fill:#515f6c"/><path d="M3.4 5.2h9.2V7H3.4V5.2zm0 3.7h5.8v1.8H3.4V8.9z" style="fill:#3f4d5a"/></symbol><symbol xml:space="preserve" style="enable-background:new 0 0 16 16" viewBox="0 0 16 16" id="vector" xmlns="http://www.w3.org/2000/svg"><path d="M1.6 15.5C1 15.5.5 15 .5 14.4V1.6C.5 1 1 .5 1.6.5h12.8c.6 0 1.1.5 1.1 1.1v12.8c0 .6-.5 1.1-1.1 1.1H1.6z" style="fill:#f8fafc"/><path d="M14.4 1c.3 0 .6.3.6.6v12.8c0 .3-.3.6-.6.6H1.6c-.3 0-.6-.3-.6-.6V1.6c0-.3.3-.6.6-.6h12.8m0-1H1.6C.7 0 0 .7 0 1.6v12.8c0 .9.7 1.6 1.6 1.6h12.8c.9 0 1.6-.7 1.6-1.6V1.6c0-.9-.7-1.6-1.6-1.6z" style="fill:#515f6c"/><path d="m8 12.2-2.6 1.1L8 7.5l2.6 5.8L8 12.2M5.9 2.7h4.2v1.6h3.2v1.1h-3.2V7H5.9V5.4H2.7V4.3h3.2V2.7m1 1.1v2.1H9V3.8H6.9z" style="fill:#3f4d5a"/></symbol><symbol xml:space="preserve" style="enable-background:new 0 0 16 16" viewBox="0 0 16 16" id="video" xmlns="http://www.w3.org/2000/svg"><path d="M1.6 15.5C1 15.5.5 15 .5 14.4V1.6C.5 1 1 .5 1.6.5h12.8c.6 0 1.1.5 1.1 1.1v12.8c0 .6-.5 1.1-1.1 1.1H1.6z" style="fill:#f8fafc"/><path d="M14.4 1c.3 0 .6.3.6.6v12.8c0 .3-.3.6-.6.6H1.6c-.3 0-.6-.3-.6-.6V1.6c0-.3.3-.6.6-.6h12.8m0-1H1.6C.7 0 0 .7 0 1.6v12.8c0 .9.7 1.6 1.6 1.6h12.8c.9 0 1.6-.7 1.6-1.6V1.6c0-.9-.7-1.6-1.6-1.6z" style="fill:#515f6c"/><path d="M5.7 11.2 11.5 8 5.7 4.8v6.4z" style="fill:#3f4d5a"/></symbol><symbol viewBox="0 0 16 16" id="word" xmlns="http://www.w3.org/2000/svg"><path d="M1.6 15.5a1.11 1.11 0 0 1-1.1-1.1V1.6A1.11 1.11 0 0 1 1.6.5h12.8a1.11 1.11 0 0 1 1.1 1.1v12.8a1.11 1.11 0 0 1-1.1 1.1Z" style="fill:#f8fafc"/><path d="M14.4 1a.65.65 0 0 1 .6.6v12.8a.65.65 0 0 1-.6.6H1.6a.65.65 0 0 1-.6-.6V1.6a.65.65 0 0 1 .6-.6h12.8m0-1H1.6A1.58 1.58 0 0 0 0 1.6v12.8A1.58 1.58 0 0 0 1.6 16h12.8a1.58 1.58 0 0 0 1.6-1.6V1.6A1.58 1.58 0 0 0 14.4 0Z" style="fill:#1870af"/><path d="m8 7.7 1.4 4.6H11l1.5-7.6h-1.6L10 9.1 8.8 4.8H7.4L6 9.2l-.9-4.6H3.5L5 12.3h1.6Z" style="fill:#1870af"/></symbol><symbol xml:space="preserve" style="enable-background:new 0 0 16 16" viewBox="0 0 16 16" id="workflow" xmlns="http://www.w3.org/2000/svg"><path d="M14.4 0H1.6C.7 0 0 .7 0 1.6v12.8c0 .9.7 1.6 1.6 1.6h12.8c.9 0 1.6-.7 1.6-1.6V1.6c0-.9-.7-1.6-1.6-1.6z" style="fill:#b53073"/><path d="M10.4 9.9 8.5 8V6.5c.2-.1.5-.3.7-.5s.3-.5.3-.8c0-.4-.1-.7-.4-1s-.7-.5-1.1-.5-.7.2-1 .5-.4.6-.4 1c0 .3.1.6.3.8s.4.4.7.5V8l-2 1.9H3.7v2.4h2.4v-1.4l1.9-2 1.9 2v1.4h2.4V9.9h-1.9z" style="fill:#fff"/></symbol></svg>